<?xml version="1.0" encoding="UTF-8"?>
<svg version="1.1" xmlns="http://www.w3.org/2000/svg" width="500" height="500">
<path d="M0 0 C165 0 330 0 500 0 C500 165 500 330 500 500 C335 500 170 500 0 500 C0 335 0 170 0 0 Z " fill="#FEFEFE" transform="translate(0,0)"/>
<path d="M0 0 C0.66 0 1.32 0 2 0 C2.4650293 1.16402344 2.4650293 1.16402344 2.93945312 2.3515625 C9.45993331 20.33848849 9.45993331 20.33848849 23.125 32.375 C25.10791818 33.136197 27.08129208 33.81149106 29.11816406 34.41308594 C32.04311979 35.32533212 34.743135 36.67472043 37.5 38 C38.99854242 38.66993661 40.49790771 39.33806103 42 40 C41.41461501 37.16733197 40.69239266 35.45768654 38.24121094 33.83740234 C35.9801322 32.70891198 33.69837687 31.68134709 31.375 30.6875 C30.57320313 30.32849609 29.77140625 29.96949219 28.9453125 29.59960938 C26.97025182 28.71788586 24.98595816 27.85689629 23 27 C23 26.34 23 25.68 23 25 C24.7015625 24.42958984 24.7015625 24.42958984 26.4375 23.84765625 C34.40177803 20.84726342 40.16542956 18.25312114 44.05664062 10.35717773 C45.51490549 6.93981188 46.81870955 3.52384948 48 0 C51.14189013 2.89554169 52.20072756 5.78648571 53.8125 9.75 C57.16200813 17.2115761 61.53214181 19.72882006 68.890625 22.86328125 C70.91688477 23.60403702 72.9532946 24.31776487 75 25 C75 25.66 75 26.32 75 27 C73.87980469 27.45890625 72.75960937 27.9178125 71.60546875 28.390625 C70.13255757 29.00981059 68.6599152 29.6296359 67.1875 30.25 C66.44951172 30.55035156 65.71152344 30.85070312 64.95117188 31.16015625 C57.74894828 34.22354547 55.69203942 38.3074806 52.3125 45.25 C51.99216797 45.8996875 51.67183594 46.549375 51.34179688 47.21875 C50.55752859 48.81069757 49.77825745 50.40510529 49 52 C46.12239928 48.59919915 45.53048177 46.59144531 44 42 C40.04 43.65 36.08 45.3 32 47 C34.3203125 47.61875 34.3203125 47.61875 36.6875 48.25 C40.88480695 49.49430802 43.80270864 50.90928502 47 54 C46.67 55.32 46.34 56.64 46 58 C45.484375 57.731875 44.96875 57.46375 44.4375 57.1875 C43.633125 56.795625 42.82875 56.40375 42 56 C40.906875 55.46375 39.81375 54.9275 38.6875 54.375 C34.73730552 52.90204613 32.17521462 52.53608726 28 53 C25.68720389 54.15639806 23.82590172 55.17409828 22 57 C21.47433573 61.84107658 21.47433573 61.84107658 23.52734375 66.0546875 C26.70485526 68.55453068 30.08183018 69.59809622 33.875 70.8125 C43.91630041 74.33010995 43.91630041 74.33010995 47.2109375 79.14453125 C48.75038132 82.76451054 48.62376402 85.07028668 48 89 C45.74583906 93.42483445 43.48248125 95.87082141 39 98 C32.59029023 99.8634414 27.07146445 99.91779798 21.125 96.6875 C18.38171602 95.05037892 16.17902496 93.33662739 14 91 C14.495 89.515 14.495 89.515 15 88 C17.92209257 88.4495527 19.12676085 89.10725918 21.4375 91.0625 C26.13728894 94.37289118 32.54393008 93.78245964 38 93 C40.44485983 91.94595788 40.44485983 91.94595788 42 90 C42.48261667 87.49119384 42.48261667 87.49119384 42.25 84.8125 C42.21390625 83.91144531 42.1778125 83.01039063 42.140625 82.08203125 C42.09421875 81.39496094 42.0478125 80.70789063 42 80 C39.15000108 78.84355813 36.2905764 77.7370506 33.40625 76.66796875 C32.10407515 76.1747207 30.8019936 75.68122629 29.5 75.1875 C28.84902344 74.95224609 28.19804688 74.71699219 27.52734375 74.47460938 C23.01767808 72.73907137 20.10734954 70.69287623 17 67 C15.50915168 62.52745503 15.50915168 58.47254497 17 54 C14.00292707 56.56170046 12.69786316 59.41868873 11.08203125 62.98046875 C10.55029297 64.14384766 10.01855469 65.30722656 9.47070312 66.50585938 C8.9178231 67.73300731 8.36509058 68.9602217 7.8125 70.1875 C7.24866235 71.42671252 6.6842158 72.66564817 6.11914062 73.90429688 C4.74007524 76.93352596 3.36730568 79.96544923 2 83 C-0.83808218 80.56757545 -1.86310004 78.22137885 -3.13671875 74.73828125 C-7.88311788 61.23859584 -7.88311788 61.23859584 -17.8840332 51.76049805 C-20.56592476 50.60401003 -23.26089792 49.58490679 -26.03857422 48.68261719 C-29.19076235 47.5855898 -32.04200586 46.04360497 -35 44.5 C-35.969375 44.0153125 -36.93875 43.530625 -37.9375 43.03125 C-38.618125 42.6909375 -39.29875 42.350625 -40 42 C-40 41.34 -40 40.68 -40 40 C-36.33606817 38.28616417 -32.66986349 36.57730161 -29.00146484 34.87304688 C-27.75343107 34.29238479 -26.50603071 33.71035931 -25.25927734 33.12695312 C-23.4687886 32.28939753 -21.6758337 31.45712034 -19.8828125 30.625 C-18.80402832 30.12226563 -17.72524414 29.61953125 -16.61376953 29.1015625 C-14 28 -14 28 -12 28 C-11.77570313 27.24460938 -11.55140625 26.48921875 -11.3203125 25.7109375 C-9.47985581 20.53805626 -7.17096729 15.60924272 -4.875 10.625 C-4.40707031 9.60277344 -3.93914062 8.58054688 -3.45703125 7.52734375 C-2.30741708 5.01696179 -1.15499936 2.50790769 0 0 Z " fill="#9390FE" transform="translate(91,173)"/>
<path d="M0 0 C3.46573107 1.80646214 3.46573107 1.80646214 4.625 4.125 C5.285 2.475 5.945 0.825 6.625 -0.875 C7.615 -0.545 8.605 -0.215 9.625 0.125 C9.625 11.345 9.625 22.565 9.625 34.125 C8.305 34.125 6.985 34.125 5.625 34.125 C5.295 32.805 4.965 31.485 4.625 30.125 C3.696875 30.929375 2.76875 31.73375 1.8125 32.5625 C-1.20246868 35.17547286 -3.53595656 36.02628901 -7.5625 36.5 C-13.17745073 35.94770976 -17.0762044 33.7972694 -20.76953125 29.50390625 C-24.49777092 23.37800008 -24.4362592 16.03122463 -23.375 9.125 C-21.33973054 4.53170352 -18.54457231 1.92130455 -14.4375 -0.875 C-9.02973546 -2.64080066 -5.09310544 -2.42831992 0 0 Z " fill="#F9F9F9" transform="translate(193.375,235.875)"/>
<path d="M0 0 C3.14189013 2.89554169 4.20072756 5.78648571 5.8125 9.75 C9.16200813 17.2115761 13.53214181 19.72882006 20.890625 22.86328125 C22.91688477 23.60403702 24.9532946 24.31776487 27 25 C27 25.66 27 26.32 27 27 C25.87980469 27.45890625 24.75960937 27.9178125 23.60546875 28.390625 C22.13255757 29.00981059 20.6599152 29.6296359 19.1875 30.25 C18.44951172 30.55035156 17.71152344 30.85070312 16.95117188 31.16015625 C9.74894828 34.22354547 7.69203942 38.3074806 4.3125 45.25 C3.83200195 46.22453125 3.83200195 46.22453125 3.34179688 47.21875 C2.55752859 48.81069757 1.77825745 50.40510529 1 52 C-1.73375528 48.7819795 -2.77986594 45.71955646 -4.125 41.75 C-7.65455848 33.68113821 -13.6102114 31.43886784 -21.4921875 28.29296875 C-22.64976563 27.86628906 -23.80734375 27.43960938 -25 27 C-25 26.34 -25 25.68 -25 25 C-23.865625 24.61972656 -22.73125 24.23945313 -21.5625 23.84765625 C-13.59822197 20.84726342 -7.83457044 18.25312114 -3.94335938 10.35717773 C-2.48509451 6.93981188 -1.18129045 3.52384948 0 0 Z " fill="#565DFF" transform="translate(139,173)"/>
<path d="M0 0 C1.81005859 0.08959961 1.81005859 0.08959961 4 1 C5.98291016 3.40844727 5.98291016 3.40844727 8.0390625 6.56640625 C8.58945694 7.39663551 8.58945694 7.39663551 9.15097046 8.24363708 C10.32003923 10.00960063 11.47350544 11.78503646 12.625 13.5625 C13.78519585 15.34237862 14.94861242 17.11983901 16.12045288 18.89207458 C17.18031804 20.49640544 18.22837876 22.10851584 19.27587891 23.72094727 C19.84483887 24.47303467 20.41379883 25.22512207 21 26 C21.66 26 22.32 26 23 26 C24.77913357 23.73553755 24.77913357 23.73553755 26.625 20.8203125 C27.33140625 19.74652344 28.0378125 18.67273438 28.765625 17.56640625 C29.51079308 16.41951531 30.25558052 15.27237698 31 14.125 C32.45504293 11.89625381 33.91459777 9.67056043 35.375 7.4453125 C36.02210938 6.45031738 36.66921875 5.45532227 37.3359375 4.43017578 C39 2 39 2 41 0 C41.99 0 42.98 0 44 0 C44 16.17 44 32.34 44 49 C42.68 48.67 41.36 48.34 40 48 C39.67 35.46 39.34 22.92 39 10 C34.85523235 16.40083389 34.85523235 16.40083389 30.71362305 22.80371094 C30.19324463 23.60583008 29.67286621 24.40794922 29.13671875 25.234375 C28.60780029 26.05131836 28.07888184 26.86826172 27.53393555 27.70996094 C27.02773682 28.46567383 26.52153809 29.22138672 26 30 C25.50218018 30.75829102 25.00436035 31.51658203 24.49145508 32.29785156 C23.9992749 32.85956055 23.50709473 33.42126953 23 34 C22.01 34 21.02 34 20 34 C18.2824707 31.88867188 18.2824707 31.88867188 16.42578125 28.96875 C15.82419189 28.03482422 15.22260254 27.10089844 14.6027832 26.13867188 C13.84698975 24.93791016 13.09119629 23.73714844 12.3125 22.5 C9.899375 18.705 7.48625 14.91 5 11 C4.67 23.21 4.34 35.42 4 48 C2.02 48.495 2.02 48.495 0 49 C-1.58681989 47.41318011 -1.12728536 45.78751654 -1.12939453 43.58789062 C-1.13412277 42.18138245 -1.13412277 42.18138245 -1.13894653 40.74645996 C-1.1369223 39.72669067 -1.13489807 38.70692139 -1.1328125 37.65625 C-1.13376923 36.61682251 -1.13472595 35.57739502 -1.13571167 34.50646973 C-1.13639363 32.30395446 -1.13453827 30.10143721 -1.13037109 27.89892578 C-1.12502308 24.51460281 -1.13031559 21.13041256 -1.13671875 17.74609375 C-1.13605797 15.61197887 -1.13477681 13.47786408 -1.1328125 11.34375 C-1.13483673 10.32398071 -1.13686096 9.30421143 -1.13894653 8.25354004 C-1.13579437 7.31586792 -1.13264221 6.3781958 -1.12939453 5.41210938 C-1.12859894 4.58239624 -1.12780334 3.75268311 -1.12698364 2.89782715 C-1 1 -1 1 0 0 Z " fill="#141414" transform="translate(243,222)"/>
<path d="M0 0 C5.28132702 1.79811718 8.52376635 5.0475327 11 10 C11.63836648 12.73944671 11.85584443 15.16494048 12 18 C11 19 11 19 8.31616211 19.11352539 C7.14835205 19.10828857 5.98054199 19.10305176 4.77734375 19.09765625 C3.51728516 19.09443359 2.25722656 19.09121094 0.95898438 19.08789062 C-0.38151109 19.07953403 -1.72200588 19.07106907 -3.0625 19.0625 C-4.40689942 19.0574866 -5.7513006 19.05292342 -7.09570312 19.04882812 C-10.39717941 19.03699488 -13.69856803 19.02050971 -17 19 C-16.56325384 20.45092386 -16.11426554 21.89816638 -15.66015625 23.34375 C-15.41144775 24.15005859 -15.16273926 24.95636719 -14.90649414 25.78710938 C-13.35237313 29.58095609 -10.53964394 31.23017803 -7 33 C-1.70197449 33.40754042 1.4207956 32.64576254 6 30 C7.33333333 29.33333333 8.66666667 28.66666667 10 28 C10 29.32 10 30.64 10 32 C5.96493604 35.91977642 2.24424969 37.745934 -3.3125 38.375 C-9.13430209 37.78295233 -13.34160188 35.74568224 -17.375 31.5 C-21.36553478 25.36071572 -21.91767406 20.30393642 -21 13 C-17.2718802 3.4486187 -10.02576059 -1.16693279 0 0 Z " fill="#101010" transform="translate(349,234)"/>
<path d="M0 0 C2.97628378 1.45821582 5.22168475 2.819341 7.57421875 5.171875 C7.19921875 7.296875 7.19921875 7.296875 6.57421875 9.171875 C6.05859375 8.90375 5.54296875 8.635625 5.01171875 8.359375 C4.20734375 7.9675 3.40296875 7.575625 2.57421875 7.171875 C1.48109375 6.635625 0.38796875 6.099375 -0.73828125 5.546875 C-4.68847573 4.07392113 -7.25056663 3.70796226 -11.42578125 4.171875 C-13.73857736 5.32827306 -15.59987953 6.34597328 -17.42578125 8.171875 C-17.95144552 13.01295158 -17.95144552 13.01295158 -15.8984375 17.2265625 C-12.72092599 19.72640568 -9.34395107 20.76997122 -5.55078125 21.984375 C4.49051916 25.50198495 4.49051916 25.50198495 7.78515625 30.31640625 C9.32460007 33.93638554 9.19798277 36.24216168 8.57421875 40.171875 C6.32005781 44.59670945 4.0567 47.04269641 -0.42578125 49.171875 C-6.83549102 51.0353164 -12.3543168 51.08967298 -18.30078125 47.859375 C-21.04406523 46.22225392 -23.24675629 44.50850239 -25.42578125 42.171875 C-25.09578125 41.181875 -24.76578125 40.191875 -24.42578125 39.171875 C-21.50368868 39.6214277 -20.2990204 40.27913418 -17.98828125 42.234375 C-13.28849231 45.54476618 -6.88185117 44.95433464 -1.42578125 44.171875 C1.01907858 43.11783288 1.01907858 43.11783288 2.57421875 41.171875 C3.05683542 38.66306884 3.05683542 38.66306884 2.82421875 35.984375 C2.77007812 34.63279297 2.77007812 34.63279297 2.71484375 33.25390625 C2.6684375 32.56683594 2.62203125 31.87976563 2.57421875 31.171875 C-0.27578017 30.01543313 -3.13520485 28.9089256 -6.01953125 27.83984375 C-7.3217061 27.3465957 -8.62378765 26.85310129 -9.92578125 26.359375 C-10.57675781 26.12412109 -11.22773437 25.88886719 -11.8984375 25.64648438 C-16.40810317 23.91094637 -19.31843171 21.86475123 -22.42578125 18.171875 C-23.6611217 14.46585365 -23.8810687 12.07433886 -23.42578125 8.171875 C-18.06756302 -0.50250435 -9.78960913 -3.34202437 0 0 Z " fill="#121212" transform="translate(130.42578125,221.828125)"/>
<path d="M0 0 C3.46573107 1.80646214 3.46573107 1.80646214 4.625 4.125 C5.285 2.475 5.945 0.825 6.625 -0.875 C7.615 -0.545 8.605 -0.215 9.625 0.125 C9.625 11.345 9.625 22.565 9.625 34.125 C8.305 34.125 6.985 34.125 5.625 34.125 C5.295 32.805 4.965 31.485 4.625 30.125 C3.696875 30.929375 2.76875 31.73375 1.8125 32.5625 C-1.20246868 35.17547286 -3.53595656 36.02628901 -7.5625 36.5 C-13.17745073 35.94770976 -17.0762044 33.7972694 -20.76953125 29.50390625 C-24.49777092 23.37800008 -24.4362592 16.03122463 -23.375 9.125 C-21.33973054 4.53170352 -18.54457231 1.92130455 -14.4375 -0.875 C-9.02973546 -2.64080066 -5.09310544 -2.42831992 0 0 Z M-18.25 8.1875 C-20.43091394 13.88210862 -20.13005379 19.81789119 -18.25 25.5625 C-15.86168415 28.82653166 -14.06672238 30.41586927 -10.375 32.125 C-5.51650502 32.55343871 -2.32332889 31.85137958 1.5625 28.875 C5.30209282 23.88887623 6.13684287 19.80783716 6.0078125 13.6328125 C5.38852615 9.57585499 3.5809612 6.91042498 0.625 4.125 C-6.66911587 -0.17665808 -12.82813536 2.22344889 -18.25 8.1875 Z " fill="#0D0D0D" transform="translate(193.375,235.875)"/>
<path d="M0 0 C5.51724138 2.75862069 5.51724138 2.75862069 6.875 6.25 C6.91625 6.8275 6.9575 7.405 7 8 C4.74202176 7.49822706 2.79756729 6.90699038 0.6875 5.9375 C-2.69932949 4.75604785 -5.43581552 4.73598633 -9 5 C-12.19997155 6.6408946 -12.19997155 6.6408946 -12.5625 9.375 C-12.2243351 12.23296879 -12.2243351 12.23296879 -9.5625 14.125 C-6.95056755 15.67854276 -4.34176204 16.56816404 -1.4375 17.4375 C2.81039741 18.77931895 5.36474037 20.25963149 8 24 C8.67096636 28.17490177 8.49348946 30.17751757 6.3125 33.8125 C2.27853822 37.62840979 -1.37422618 38.46103036 -6.94140625 38.32421875 C-11.73511001 37.56923315 -15.88138278 34.66896144 -19 31 C-18.505 29.515 -18.505 29.515 -18 28 C-15.08743394 28.43149127 -13.97127635 29.02633001 -11.75 31.0625 C-7.8519297 33.80886771 -5.71799803 33.44933315 -1 33 C1.40557853 32.13734032 1.40557853 32.13734032 3 31 C3 29.02 3 27.04 3 25 C-0.47336254 23.12972786 -3.78150998 21.74971793 -7.5625 20.6875 C-12.36898577 19.12863975 -14.37067314 17.32566677 -17 13 C-17.71856188 9.08782978 -17.38790077 7.60955836 -15.25 4.25 C-10.71781391 -0.28218609 -6.20503587 -0.88029921 0 0 Z " fill="#131313" transform="translate(386,234)"/>
<path d="M0 0 C2.43225824 2.1870442 3.02995116 3.09513897 4.0625 6.375 C5.84330389 10.98356392 9.61779488 12.23910473 13.91796875 14.15234375 C14.94857422 14.57193359 14.94857422 14.57193359 16 15 C13.8129558 17.43225824 12.90486103 18.02995116 9.625 19.0625 C5.01643608 20.84330389 3.76089527 24.61779488 1.84765625 28.91796875 C1.56792969 29.60503906 1.28820312 30.29210937 1 31 C-1.43225824 28.8129558 -2.02995116 27.90486103 -3.0625 24.625 C-4.84330389 20.01643608 -8.61779488 18.76089527 -12.91796875 16.84765625 C-13.60503906 16.56792969 -14.29210937 16.28820312 -15 16 C-14 14 -14 14 -12.109375 13.28125 C-11.33078125 13.0234375 -10.5521875 12.765625 -9.75 12.5 C-4.4843406 10.31647298 -2.96150977 7.13590828 -0.77734375 2.046875 C-0.39255859 1.03367188 -0.39255859 1.03367188 0 0 Z " fill="#0711FF" transform="translate(81,246)"/>
<path d="M0 0 C0.99 0.33 1.98 0.66 3 1 C3 3.97 3 6.94 3 10 C5.64 10 8.28 10 11 10 C11 11.32 11 12.64 11 14 C8.36 14 5.72 14 3 14 C3.33 22.91 3.66 31.82 4 41 C5.98 41.33 7.96 41.66 10 42 C10 42.99 10 43.98 10 45 C7.20129973 46.39935013 5.09501208 46.25265405 2 46 C0.3269043 44.89916992 0.3269043 44.89916992 -1 43 C-1.34057617 39.99731445 -1.34057617 39.99731445 -1.29296875 36.36328125 C-1.28330078 35.06455078 -1.27363281 33.76582031 -1.26367188 32.42773438 C-1.23860585 31.05598361 -1.21321101 29.68423882 -1.1875 28.3125 C-1.1724502 26.92905076 -1.1587623 25.54558599 -1.14648438 24.16210938 C-1.11107223 20.77434793 -1.06168054 17.38736861 -1 14 C-3.31 14 -5.62 14 -8 14 C-8 12.68 -8 11.36 -8 10 C-5.69 10 -3.38 10 -1 10 C-1.01160156 9.36191406 -1.02320313 8.72382813 -1.03515625 8.06640625 C-1.04417969 7.24011719 -1.05320313 6.41382813 -1.0625 5.5625 C-1.07410156 4.73878906 -1.08570313 3.91507813 -1.09765625 3.06640625 C-1 1 -1 1 0 0 Z " fill="#0C0C0C" transform="translate(152,225)"/>
<path d="M0 0 C0 0.99 0 1.98 0 3 C-0.66386719 3.07476562 -1.32773438 3.14953125 -2.01171875 3.2265625 C-3.33623047 3.42378906 -3.33623047 3.42378906 -4.6875 3.625 C-5.55761719 3.74101562 -6.42773438 3.85703125 -7.32421875 3.9765625 C-11.12382364 5.42984203 -13.27911814 7.37469842 -15 11 C-15.73130651 15.12605411 -15.79032781 19.19184675 -15.8125 23.375 C-15.83763672 24.49261719 -15.86277344 25.61023438 -15.88867188 26.76171875 C-15.94735666 29.50816665 -15.98377396 32.25302751 -16 35 C-17.9375 35.5625 -17.9375 35.5625 -20 36 C-21 35 -21 35 -21.11352539 31.76538086 C-21.11336631 30.33185874 -21.10767407 28.89833088 -21.09765625 27.46484375 C-21.0962413 26.71159317 -21.09482635 25.95834259 -21.09336853 25.18226624 C-21.08775376 22.7673044 -21.07519883 20.35243399 -21.0625 17.9375 C-21.0574869 16.30403779 -21.05292366 14.67057414 -21.04882812 13.03710938 C-21.03777954 9.02470415 -21.02050506 5.01236759 -21 1 C-19.68 0.67 -18.36 0.34 -17 0 C-16.34 1.65 -15.68 3.3 -15 5 C-14.05125 4.195625 -13.1025 3.39125 -12.125 2.5625 C-7.77652494 -1.1242506 -5.71546662 -0.95257777 0 0 Z " fill="#1F1F1F" transform="translate(235,235)"/>
<path d="M0 0 C0.99 0.33 1.98 0.66 3 1 C3 17.5 3 34 3 51 C1.68 51 0.36 51 -1 51 C-1.02526787 43.89755001 -1.04283201 36.79511152 -1.05493164 29.69262695 C-1.05997349 27.27432828 -1.06680678 24.85603267 -1.07543945 22.43774414 C-1.08751157 18.97020717 -1.09322963 15.50271034 -1.09765625 12.03515625 C-1.10281754 10.94662857 -1.10797882 9.85810089 -1.11329651 8.73658752 C-1.11337204 7.73562546 -1.11344757 6.73466339 -1.11352539 5.70336914 C-1.115746 4.81734512 -1.11796661 3.93132111 -1.12025452 3.01844788 C-1 1 -1 1 0 0 Z " fill="#000000" transform="translate(316,219)"/>
<path d="M0 0 C3 1.6875 3 1.6875 5 4 C5.33 5.98 5.66 7.96 6 10 C-1.59 10 -9.18 10 -17 10 C-15.91910497 4.59552487 -14.98080159 3.49533798 -11 0 C-7.49797623 -1.75101189 -3.72646488 -0.82381262 0 0 Z " fill="#F6F6F6" transform="translate(350,239)"/>
<path d="M0 0 C1.32 0 2.64 0 4 0 C4 11.55 4 23.1 4 35 C2.02 35.495 2.02 35.495 0 36 C-1.7329298 34.2670702 -1.12820046 32.03785664 -1.13894653 29.72851562 C-1.1369223 28.99310547 -1.13489807 28.25769531 -1.1328125 27.5 C-1.13376923 26.74912109 -1.13472595 25.99824219 -1.13571167 25.22460938 C-1.13639338 23.63411373 -1.13453972 22.04361533 -1.13037109 20.453125 C-1.12502267 18.01035345 -1.13031634 15.56776579 -1.13671875 13.125 C-1.13605797 11.58333293 -1.1347768 10.04166597 -1.1328125 8.5 C-1.13483673 7.76458984 -1.13686096 7.02917969 -1.13894653 6.27148438 C-1.11495161 1.11495161 -1.11495161 1.11495161 0 0 Z " fill="#282828" transform="translate(300,235)"/>
<path d="M0 0 C3.375 0.3125 3.375 0.3125 7 1 C9.29013653 4.4352048 9.17842973 5.985331 9 10 C8.01 10.495 8.01 10.495 7 11 C7 10.34 7 9.68 7 9 C4.03 9 1.06 9 -2 9 C-2.33 8.01 -2.66 7.02 -3 6 C-3.66 7.32 -4.32 8.64 -5 10 C-5 7.69 -5 5.38 -5 3 C-3.68 2.34 -2.36 1.68 -1 1 C-1.33 1.66 -1.66 2.32 -2 3 C0.64 3.33 3.28 3.66 6 4 C6 3.34 6 2.68 6 2 C3.03 1.505 3.03 1.505 0 1 C0 0.67 0 0.34 0 0 Z " fill="#8C8C8C" transform="translate(403,215)"/>
<path d="M0 0 C0.99 0.495 0.99 0.495 2 1 C2 1.99 2 2.98 2 4 C2.66 4 3.32 4 4 4 C4.33 3.01 4.66 2.02 5 1 C5 1.99 5 2.98 5 4 C6.98 4 8.96 4 11 4 C11 5.32 11 6.64 11 8 C8.22899606 9.38550197 6.0665294 9.1877467 3 9 C2.01 8.34 1.02 7.68 0 7 C-0.1875 3.375 -0.1875 3.375 0 0 Z " fill="#BFBFBF" transform="translate(399,220)"/>
<path d="M0 0 C1.65 0 3.3 0 5 0 C5 1.65 5 3.3 5 5 C3.0625 5.5625 3.0625 5.5625 1 6 C0 5 0 5 -0.0625 2.4375 C-0.041875 1.633125 -0.02125 0.82875 0 0 Z " fill="#141414" transform="translate(299,224)"/>
<path d="M0 0 C0.66 1.32 1.32 2.64 2 4 C3.32 2.68 4.64 1.36 6 0 C6.66 0.33 7.32 0.66 8 1 C6.8125 3.4375 6.8125 3.4375 5 6 C2.3125 6.8125 2.3125 6.8125 0 7 C0 4.69 0 2.38 0 0 Z " fill="#373737" transform="translate(218,236)"/>
<path d="M0 0 C0.66 0.33 1.32 0.66 2 1 C1.67 1.33 1.34 1.66 1 2 C1.66 2.33 2.32 2.66 3 3 C3 4.65 3 6.3 3 8 C2.34 8 1.68 8 1 8 C0.67 7.01 0.34 6.02 0 5 C-0.66 6.32 -1.32 7.64 -2 9 C-2.125 5.625 -2.125 5.625 -2 2 C-1.34 1.34 -0.68 0.68 0 0 Z " fill="#707070" transform="translate(400,216)"/>
<path d="M0 0 C2.64 0.66 5.28 1.32 8 2 C8 2.66 8 3.32 8 4 C5.03 4 2.06 4 -1 4 C-0.67 2.68 -0.34 1.36 0 0 Z " fill="#E4E4E4" transform="translate(401,215)"/>
<path d="M0 0 C0.33 0 0.66 0 1 0 C1 1.65 1 3.3 1 5 C-2.3 5 -5.6 5 -9 5 C-9 4.67 -9 4.34 -9 4 C-6.36 3.67 -3.72 3.34 -1 3 C-0.67 2.01 -0.34 1.02 0 0 Z " fill="#EFEFEF" transform="translate(411,225)"/>
<path d="M0 0 C1.65 0 3.3 0 5 0 C5 1.32 5 2.64 5 4 C3.35 4 1.7 4 0 4 C0 2.68 0 1.36 0 0 Z " fill="#5B5B5B" transform="translate(405,220)"/>
</svg>
