<?xml version="1.0" encoding="UTF-8"?>
<svg version="1.1" xmlns="http://www.w3.org/2000/svg" width="500" height="500">
<path d="M0 0 C165 0 330 0 500 0 C500 165 500 330 500 500 C335 500 170 500 0 500 C0 335 0 170 0 0 Z " fill="#FEFEFE" transform="translate(0,0)"/>
<path d="M0 0 C0.66 0 1.32 0 2 0 C2.66418945 1.41925781 2.66418945 1.41925781 3.34179688 2.8671875 C5.02460311 6.46159349 6.71017647 10.05469659 8.39648438 13.64746094 C9.11856474 15.18683404 9.83994695 16.72653488 10.56054688 18.26660156 C12.66763921 22.76918714 14.79148212 27.26327895 16.9329834 31.74960327 C18.00729236 34.01537999 19.06076243 36.29015925 20.11425781 38.56567383 C20.79919804 40.00906902 21.48503358 41.45203977 22.171875 42.89453125 C22.62258362 43.88845886 22.62258362 43.88845886 23.08239746 44.90246582 C26.25701502 51.46368472 30.91042818 53.45656713 37.45947266 55.96826172 C40.65459952 57.26584063 43.76866466 58.72100754 46.88671875 60.19140625 C47.50235687 60.48146042 48.117995 60.77151459 48.75228882 61.07035828 C50.01561167 61.66598605 51.27880446 62.26188976 52.54187012 62.85806274 C59.97508701 66.35556146 67.42043988 69.82975689 75 73 C75 73.66 75 74.32 75 75 C69.57515453 77.54337194 69.57515453 77.54337194 67.28617859 78.61125183 C63.88537672 80.19847471 60.49142923 81.79812417 57.10766602 83.42138672 C51.15361441 86.26013698 45.33942852 89.02883624 39.01171875 90.94921875 C30.69762007 93.58354224 25.64038096 96.18360449 21.24609375 104.00390625 C18.28724364 109.98919441 15.81143793 116.12184713 13.42724609 122.35498047 C11.2451451 127.92781109 8.71333465 133.32672507 6.1875 138.75 C5.36606734 140.55619202 4.54679302 142.36336846 3.73046875 144.171875 C3.39426514 144.9153418 3.05806152 145.65880859 2.71166992 146.42480469 C2.47681885 146.94461914 2.24196777 147.46443359 2 148 C1.34 148 0.68 148 0 148 C-2.15080089 143.43269059 -4.30125418 138.86521772 -6.45141602 134.29760742 C-7.17951577 132.7510154 -7.90770268 131.20446442 -8.63598633 129.65795898 C-10.40000038 125.9120161 -12.16262857 122.16543574 -13.92236328 118.41748047 C-15.30403534 115.47547675 -16.69378803 112.53748666 -18.08935547 109.60205078 C-18.73539756 108.23602436 -19.38139578 106.86997718 -20.02734375 105.50390625 C-20.47926842 104.55982155 -20.47926842 104.55982155 -20.94032288 103.59666443 C-23 99.22616906 -23 99.22616906 -23 97 C-23.6590332 96.91081299 -24.31806641 96.82162598 -24.99707031 96.72973633 C-28.9577925 95.76724864 -32.38681475 94.09155252 -36.046875 92.32421875 C-36.81751282 91.95778763 -37.58815063 91.59135651 -38.38214111 91.21382141 C-40.84063535 90.04362402 -43.29541211 88.86586608 -45.75 87.6875 C-48.19101615 86.52139254 -50.63278513 85.35688267 -53.07501221 84.1933136 C-54.59081213 83.47050872 -56.10580542 82.74600869 -57.61981201 82.01945496 C-62.7062191 79.58565959 -67.83684104 77.26624212 -73 75 C-73 74.34 -73 73.68 -73 73 C-68.39622088 70.83056694 -63.79212033 68.66181791 -59.18774414 66.49365234 C-57.62743822 65.75880583 -56.06721429 65.0237852 -54.50708008 64.28857422 C-50.03689185 62.18208243 -45.56437793 60.08065007 -41.08990479 57.98327637 C-39.08730039 57.04107384 -37.08892657 56.09041427 -35.09130859 55.13769531 C-33.35034912 54.31543457 -33.35034912 54.31543457 -31.57421875 53.4765625 C-30.56319092 52.99525879 -29.55216309 52.51395508 -28.51049805 52.01806641 C-26 51 -26 51 -23 51 C-22.62174072 49.76697144 -22.62174072 49.76697144 -22.23583984 48.5090332 C-20.81664675 44.47938832 -19.07090197 40.70421611 -17.2265625 36.85546875 C-16.86154633 36.08624588 -16.49653015 35.31702301 -16.12045288 34.52449036 C-14.95853857 32.07727246 -13.79201266 29.63229016 -12.625 27.1875 C-11.46594266 24.75304422 -10.3078928 22.31811577 -9.15097046 19.88264465 C-8.43333639 18.37259957 -7.71437731 16.86318314 -6.99380493 15.35453796 C-4.57504059 10.27403757 -2.26329388 5.15156368 0 0 Z " fill="#565657" transform="translate(209,176)"/>
<path d="M0 0 C0.66 0 1.32 0 2 0 C2.37060547 0.92748047 2.74121094 1.85496094 3.12304688 2.81054688 C9.78945288 22.20488504 9.78945288 22.20488504 22.91796875 36.70703125 C25.53105074 37.76582495 28.14138559 38.62808795 30.86621094 39.3515625 C34.9426103 40.59034015 38.68737849 42.62208196 42.5 44.5 C43.94612734 45.18089663 45.3938829 45.85835334 46.84375 46.53125 C48.40609375 47.25828125 48.40609375 47.25828125 50 48 C50 48.66 50 49.32 50 50 C49.07251953 50.37060547 48.14503906 50.74121094 47.18945312 51.12304688 C27.79511496 57.78945288 27.79511496 57.78945288 13.29296875 70.91796875 C12.23417505 73.53105074 11.37191205 76.14138559 10.6484375 78.86621094 C9.40965985 82.9426103 7.37791804 86.68737849 5.5 90.5 C4.81910337 91.94612734 4.14164666 93.3938829 3.46875 94.84375 C2.74171875 96.40609375 2.74171875 96.40609375 2 98 C1.34 98 0.68 98 0 98 C-0.37060547 97.07251953 -0.74121094 96.14503906 -1.12304688 95.18945312 C-7.78945288 75.79511496 -7.78945288 75.79511496 -20.91796875 61.29296875 C-23.53105074 60.23417505 -26.14138559 59.37191205 -28.86621094 58.6484375 C-32.9426103 57.40965985 -36.68737849 55.37791804 -40.5 53.5 C-41.94612734 52.81910337 -43.3938829 52.14164666 -44.84375 51.46875 C-45.8853125 50.9840625 -46.926875 50.499375 -48 50 C-48 49.34 -48 48.68 -48 48 C-47.07251953 47.62939453 -46.14503906 47.25878906 -45.18945312 46.87695312 C-25.79511496 40.21054712 -25.79511496 40.21054712 -11.29296875 27.08203125 C-10.23417505 24.46894926 -9.37191205 21.85861441 -8.6484375 19.13378906 C-7.40965985 15.0573897 -5.37791804 11.31262151 -3.5 7.5 C-2.81910337 6.05387266 -2.14164666 4.6061171 -1.46875 3.15625 C-0.9840625 2.1146875 -0.499375 1.073125 0 0 Z " fill="#535AFC" transform="translate(209,201)"/>
<path d="M0 0 C0.66 0 1.32 0 2 0 C2.40347656 1.07378906 2.80695313 2.14757812 3.22265625 3.25390625 C6.62829934 11.48614102 9.52994083 16.93896323 18 20.5 C20.3196141 21.42144557 22.62238003 22.23222688 25 23 C25 23.66 25 24.32 25 25 C23.92621094 25.40347656 22.85242188 25.80695313 21.74609375 26.22265625 C13.51385898 29.62829934 8.06103677 32.52994083 4.5 41 C3.57855443 43.3196141 2.76777312 45.62238003 2 48 C1.34 48 0.68 48 0 48 C-0.40347656 46.92621094 -0.80695313 45.85242188 -1.22265625 44.74609375 C-4.62829934 36.51385898 -7.52994083 31.06103677 -16 27.5 C-18.3196141 26.57855443 -20.62238003 25.76777312 -23 25 C-23 24.34 -23 23.68 -23 23 C-21.92621094 22.59652344 -20.85242188 22.19304687 -19.74609375 21.77734375 C-11.51385898 18.37170066 -6.06103677 15.47005917 -2.5 7 C-1.57855443 4.6803859 -0.76777312 2.37761997 0 0 Z " fill="#908DFF" transform="translate(209,226)"/>
<path d="M0 0 C1.32 0 2.64 0 4 0 C4 5.94 4 11.88 4 18 C3.34 18 2.68 18 2 18 C1.67 17.34 1.34 16.68 1 16 C0.34 16.66 -0.32 17.32 -1 18 C-5.02104757 18.44678306 -7.13756416 18.6808704 -10.375 16.125 C-13.27793217 12.32885793 -13.4051942 9.78129155 -13 5 C-9.01227132 -1.1145173 -6.94835721 -1.07819336 0 0 Z " fill="#F5F5F5" transform="translate(344,245)"/>
<path d="M0 0 C2.75 0.9375 2.75 0.9375 4.75 2.9375 C5.08 2.2775 5.41 1.6175 5.75 0.9375 C6.41 0.9375 7.07 0.9375 7.75 0.9375 C7.75 6.8775 7.75 12.8175 7.75 18.9375 C7.09 18.9375 6.43 18.9375 5.75 18.9375 C5.42 18.2775 5.09 17.6175 4.75 16.9375 C4.09 17.5975 3.43 18.2575 2.75 18.9375 C-4.23274296 19.72587421 -4.23274296 19.72587421 -7.75 17 C-9.77225819 12.87122287 -10.32365118 9.44358148 -9.25 4.9375 C-6.89165795 1.36768087 -4.34801284 -0.08361563 0 0 Z " fill="#F6F6F6" transform="translate(289.25,201.0625)"/>
<path d="M0 0 C12 0 12 0 15.25 2.1875 C17.15903797 5.25559673 17.81092266 6.48600182 17 10 C15.6875 12.3125 15.6875 12.3125 13 14 C9.26609161 14.33846939 5.76383072 14.17923003 2 14 C2 17.63 2 21.26 2 25 C1.34 25 0.68 25 0 25 C0 16.75 0 8.5 0 0 Z " fill="#1B1B1B" transform="translate(260,195)"/>
<path d="M0 0 C3 1 3 1 4.16674805 3.10131836 C4.52808838 4.00503174 4.88942871 4.90874512 5.26171875 5.83984375 C5.85629883 7.3103418 5.85629883 7.3103418 6.46289062 8.81054688 C6.86701172 9.84244141 7.27113281 10.87433594 7.6875 11.9375 C8.31108398 13.47954102 8.31108398 13.47954102 8.94726562 15.05273438 C12 22.68707666 12 22.68707666 12 25 C11.01 24.67 10.02 24.34 9 24 C8.34 22.35 7.68 20.7 7 19 C3.04 18.67 -0.92 18.34 -5 18 C-5.66 20.31 -6.32 22.62 -7 25 C-7.66 25 -8.32 25 -9 25 C-8.40414792 19.2306386 -6.23012403 14.38338464 -3.9375 9.125 C-3.56044922 8.24585938 -3.18339844 7.36671875 -2.79492188 6.4609375 C-1.86913928 4.30468436 -0.93738089 2.15123021 0 0 Z " fill="#1F1F1F" transform="translate(257,281)"/>
<path d="M0 0 C3.68718972 1.13967682 5.24659961 1.90760344 7.4375 5.0625 C7.4375 6.7125 7.4375 8.3625 7.4375 10.0625 C2.8175 10.0625 -1.8025 10.0625 -6.5625 10.0625 C-5.10961014 14.6466963 -5.10961014 14.6466963 -3.5625 16.0625 C0.2736222 16.20725933 3.76057787 16.23911508 7.4375 15.0625 C5.72794059 17.34191255 4.36772771 18.84709891 1.53125 19.50390625 C-2.24119028 19.72208843 -4.01788556 19.48457619 -7.0625 17.125 C-9.08991822 12.98568779 -9.49322016 9.58547341 -8.5625 5.0625 C-5.94061147 1.08994162 -4.79463931 0.08411648 0 0 Z " fill="#1C1C1C" transform="translate(338.5625,286.9375)"/>
<path d="M0 0 C0.7734375 0.00386719 1.546875 0.00773438 2.34375 0.01171875 C4.5 0.3125 4.5 0.3125 7.5 2.3125 C7.5 2.9725 7.5 3.6325 7.5 4.3125 C6.984375 4.1475 6.46875 3.9825 5.9375 3.8125 C2.76636124 3.16201 -0.27218334 3.2504266 -3.5 3.3125 C-3.83 4.9625 -4.16 6.6125 -4.5 8.3125 C-3.72914063 8.71082031 -2.95828125 9.10914063 -2.1640625 9.51953125 C-0.65972656 10.31423828 -0.65972656 10.31423828 0.875 11.125 C2.37160156 11.90810547 2.37160156 11.90810547 3.8984375 12.70703125 C6.5 14.3125 6.5 14.3125 8.5 17.3125 C8.2933334 20.06805462 7.93571281 21.75382529 6.2265625 23.9453125 C3.48671473 26.11487521 1.03773274 25.71926654 -2.3359375 25.609375 C-5.1196204 25.22749792 -6.63805141 24.41731145 -8.5 22.3125 C-8.5 21.6525 -8.5 20.9925 -8.5 20.3125 C-8.005 20.6425 -7.51 20.9725 -7 21.3125 C-3.37194845 22.76372062 -0.39898713 22.50425347 3.5 22.3125 C4.79633621 21.24604885 4.79633621 21.24604885 4.5625 18.75 C4.541875 17.945625 4.52125 17.14125 4.5 16.3125 C3.80132812 16.04695312 3.10265625 15.78140625 2.3828125 15.5078125 C1.47273438 15.15460938 0.56265625 14.80140625 -0.375 14.4375 C-1.27992188 14.08945313 -2.18484375 13.74140625 -3.1171875 13.3828125 C-5.5 12.3125 -5.5 12.3125 -7.5 10.3125 C-8.06563854 4.09047604 -8.06563854 4.09047604 -6.26171875 1.609375 C-4.02948432 -0.03386631 -2.74829003 -0.05954628 0 0 Z " fill="#222222" transform="translate(307.5,237.6875)"/>
<path d="M0 0 C2.75 0.9375 2.75 0.9375 4.75 2.9375 C5.08 2.2775 5.41 1.6175 5.75 0.9375 C6.41 0.9375 7.07 0.9375 7.75 0.9375 C7.75 6.8775 7.75 12.8175 7.75 18.9375 C7.09 18.9375 6.43 18.9375 5.75 18.9375 C5.42 18.2775 5.09 17.6175 4.75 16.9375 C4.09 17.5975 3.43 18.2575 2.75 18.9375 C-4.23274296 19.72587421 -4.23274296 19.72587421 -7.75 17 C-9.77225819 12.87122287 -10.32365118 9.44358148 -9.25 4.9375 C-6.89165795 1.36768087 -4.34801284 -0.08361563 0 0 Z M-6.1875 4 C-7.86903731 7.06633274 -7.61051184 9.51263751 -7.25 12.9375 C-6.29826062 15.45790427 -6.29826062 15.45790427 -4.25 16.9375 C-0.60392711 17.55810815 1.05628876 17.41214453 4.125 15.3125 C6.2253727 12.24272452 6.28293835 10.59193439 5.75 6.9375 C4.84764165 4.45644806 4.84764165 4.45644806 2.75 2.9375 C-0.69485259 2.50689343 -3.09506242 2.30414713 -6.1875 4 Z " fill="#242424" transform="translate(289.25,201.0625)"/>
<path d="M0 0 C1.32 0 2.64 0 4 0 C4 5.94 4 11.88 4 18 C3.34 18 2.68 18 2 18 C1.67 17.34 1.34 16.68 1 16 C0.34 16.66 -0.32 17.32 -1 18 C-5.02104757 18.44678306 -7.13756416 18.6808704 -10.375 16.125 C-13.27793217 12.32885793 -13.4051942 9.78129155 -13 5 C-9.01227132 -1.1145173 -6.94835721 -1.07819336 0 0 Z M-9.9375 3.625 C-11.31565201 6.70557508 -11.48746608 8.65737548 -11 12 C-9.5 14.5 -9.5 14.5 -7 16 C-3.95720628 16.66680368 -3.95720628 16.66680368 -1 16 C1.83268842 13.63942631 1.98743809 12.11933812 2.375 8.4375 C2.2371718 5.13920803 2.2371718 5.13920803 0.9375 3.0625 C-2.77311549 1.02764634 -6.64702619 0.86524777 -9.9375 3.625 Z " fill="#0A0A0A" transform="translate(344,245)"/>
<path d="M0 0 C6.8359375 -0.1953125 6.8359375 -0.1953125 9 0 C11 2 11 2 11.25 5 C11 8 11 8 9 10 C5.98173347 10.27240673 3.03629378 10.08675125 0 10 C0 6.7 0 3.4 0 0 Z " fill="#FBFBFB" transform="translate(263,197)"/>
<path d="M0 0 C0.94875 0.04125 1.8975 0.0825 2.875 0.125 C2.875 0.785 2.875 1.445 2.875 2.125 C1.225 2.125 -0.425 2.125 -2.125 2.125 C-2.125 4.105 -2.125 6.085 -2.125 8.125 C-0.805 8.125 0.515 8.125 1.875 8.125 C1.875 8.785 1.875 9.445 1.875 10.125 C0.555 10.125 -0.765 10.125 -2.125 10.125 C-2.125 15.405 -2.125 20.685 -2.125 26.125 C-3.115 26.125 -4.105 26.125 -5.125 26.125 C-5.125 20.845 -5.125 15.565 -5.125 10.125 C-6.115 10.125 -7.105 10.125 -8.125 10.125 C-8.125 9.465 -8.125 8.805 -8.125 8.125 C-7.135 8.125 -6.145 8.125 -5.125 8.125 C-5.186875 6.701875 -5.186875 6.701875 -5.25 5.25 C-5.0773465 0.9336624 -4.3163376 0.1726535 0 0 Z " fill="#3C3C3C" transform="translate(335.125,193.875)"/>
<path d="M0 0 C2.1484375 1.53515625 2.1484375 1.53515625 4 4 C4.2911521 6.73682971 4.38322418 9.03940039 4.25 11.75 C4.23195313 12.44738281 4.21390625 13.14476562 4.1953125 13.86328125 C4.14838554 15.57611539 4.07664605 17.28823824 4 19 C3.34 19 2.68 19 2 19 C1.93941406 18.00097656 1.87882812 17.00195312 1.81640625 15.97265625 C1.69072266 14.03712891 1.69072266 14.03712891 1.5625 12.0625 C1.48128906 10.77472656 1.40007812 9.48695313 1.31640625 8.16015625 C1.35080812 5.13976043 1.35080812 5.13976043 0 4 C-3.5 3.83333333 -3.5 3.83333333 -7 4 C-8.94090826 5.94090826 -8.39919435 9.47293902 -8.5625 12.0625 C-8.64628906 13.35285156 -8.73007812 14.64320313 -8.81640625 15.97265625 C-8.87699219 16.97167969 -8.93757813 17.97070312 -9 19 C-9.66 19 -10.32 19 -11 19 C-11 13.06 -11 7.12 -11 1 C-9.68 1 -8.36 1 -7 1 C-4.4086487 -0.29567565 -2.87704151 -0.34250494 0 0 Z " fill="#191919" transform="translate(321,287)"/>
<path d="M0 0 C3.4375 0.8125 3.4375 0.8125 5.4375 3.8125 C2.1375 3.4825 -1.1625 3.1525 -4.5625 2.8125 C-4.0424928 6.780742 -4.0424928 6.780742 -1.75 8.04296875 C-1.028125 8.35878906 -0.30625 8.67460937 0.4375 9 C4.40190129 10.77690129 4.40190129 10.77690129 5.4375 11.8125 C5.6875 14.25 5.6875 14.25 5.4375 16.8125 C1.75032562 19.27061625 -0.20595704 19.12368164 -4.5625 18.8125 C-5.5525 18.1525 -6.5425 17.4925 -7.5625 16.8125 C-7.5625 16.1525 -7.5625 15.4925 -7.5625 14.8125 C-6.5725 15.1425 -5.5825 15.4725 -4.5625 15.8125 C-2.22950175 15.85204234 0.10458189 15.85651732 2.4375 15.8125 C2.48039755 13.88140419 2.48039755 13.88140419 1.4375 11.8125 C-1.98418849 10.14368065 -1.98418849 10.14368065 -5.5625 8.8125 C-6.2225 8.1525 -6.8825 7.4925 -7.5625 6.8125 C-7.375 4.3125 -7.375 4.3125 -6.5625 1.8125 C-3.5625 -0.1875 -3.5625 -0.1875 0 0 Z " fill="#2D2D2D" transform="translate(357.5625,287.1875)"/>
<path d="M0 0 C0.99 0 1.98 0 3 0 C3 1.65 3 3.3 3 5 C4.32 5 5.64 5 7 5 C7 5.66 7 6.32 7 7 C5.68 7 4.36 7 3 7 C3 11.62 3 16.24 3 21 C3.99 21 4.98 21 6 21 C6 21.66 6 22.32 6 23 C1.125 22.125 1.125 22.125 0 21 C-0.07271741 18.64686445 -0.08370868 16.29166332 -0.0625 13.9375 C-0.05347656 12.64714844 -0.04445313 11.35679687 -0.03515625 10.02734375 C-0.02355469 9.02832031 -0.01195312 8.02929688 0 7 C-0.99 7 -1.98 7 -3 7 C-3 6.34 -3 5.68 -3 5 C-2.01 5 -1.02 5 0 5 C0 3.35 0 1.7 0 0 Z " fill="#464646" transform="translate(321,240)"/>
<path d="M0 0 C3.125 0.1875 3.125 0.1875 6.125 2.1875 C6.125 2.8475 6.125 3.5075 6.125 4.1875 C4.8875 3.94 3.65 3.6925 2.375 3.4375 C-0.708593 3.07601308 -1.61458905 3.0477673 -4.4375 4.5625 C-6.59458041 8.5015164 -5.71785125 11.89995236 -4.875 16.1875 C-3.41676788 16.2145043 -1.95839325 16.23389787 -0.5 16.25 C0.71816406 16.26740234 0.71816406 16.26740234 1.9609375 16.28515625 C4.17437142 16.33216334 4.17437142 16.33216334 6.125 15.1875 C6.125 16.1775 6.125 17.1675 6.125 18.1875 C2.93266515 19.78366743 -0.40961497 19.70216114 -3.875 19.1875 C-6.30619623 17.31734906 -7.51569173 15.90611655 -8.875 13.1875 C-9.25 9.875 -9.25 9.875 -8.875 6.1875 C-6.4375 3.3125 -6.4375 3.3125 -3.875 1.1875 C-2.875 0.1875 -2.875 0.1875 0 0 Z " fill="#1F1F1F" transform="translate(356.875,200.8125)"/>
<path d="M0 0 C0.99 0.66 1.98 1.32 3 2 C3 2.66 3 3.32 3 4 C1.14375 3.6596875 1.14375 3.6596875 -0.75 3.3125 C-3.53582128 2.98649964 -4.82738479 2.9352693 -7.5 3.9375 C-9.92889312 7.27722804 -9.3871273 9.93516339 -9 14 C-7.18806994 16.24324836 -7.18806994 16.24324836 -4.6171875 16.1953125 C-3.25980469 16.16050781 -3.25980469 16.16050781 -1.875 16.125 C-0.96492188 16.10695312 -0.05484375 16.08890625 0.8828125 16.0703125 C1.93082031 16.03550781 1.93082031 16.03550781 3 16 C1 19 1 19 -1.0234375 19.46875 C-7.2702475 19.55176409 -7.2702475 19.55176409 -10.5625 17.0625 C-12.50332653 12.92769565 -13.06937676 9.4800405 -12 5 C-9.04166149 0.61314871 -5.17002488 -0.80422609 0 0 Z " fill="#222222" transform="translate(314,201)"/>
<path d="M0 0 C0.66 0 1.32 0 2 0 C1.67 1.32 1.34 2.64 1 4 C4.3 4 7.6 4 11 4 C11 4.33 11 4.66 11 5 C7.7 5 4.4 5 1 5 C1.96776098 8.79547921 1.96776098 8.79547921 4 12 C7.8361222 12.14475933 11.32307787 12.17661508 15 11 C13.29044059 13.27941255 11.93022771 14.78459891 9.09375 15.44140625 C5.32130972 15.65958843 3.54461444 15.42207619 0.5 13.0625 C-1.48762832 9.00442552 -1.56112475 5.45220293 -1 1 C-0.67 0.67 -0.34 0.34 0 0 Z " fill="#0F0F0F" transform="translate(331,291)"/>
<path d="M0 0 C1.79068573 2.6860286 2.66055791 4.6626589 3.625 7.6875 C3.88539063 8.49574219 4.14578125 9.30398438 4.4140625 10.13671875 C4.60742188 10.75160156 4.80078125 11.36648438 5 12 C2.03 12 -0.94 12 -4 12 C-3.45660208 7.43545749 -2.20536179 4.0271824 0 0 Z " fill="#E6E6E6" transform="translate(258,285)"/>
<path d="M0 0 C0.8971875 0.309375 0.8971875 0.309375 1.8125 0.625 C1.214375 0.893125 0.61625 1.16125 0 1.4375 C-2.92709515 3.02649451 -4.6969781 4.64395619 -6.1875 7.625 C-6.4150015 9.49556791 -6.59712811 11.37185958 -6.75 13.25 C-6.83378906 14.25289063 -6.91757812 15.25578125 -7.00390625 16.2890625 C-7.06449219 17.05992187 -7.12507813 17.83078125 -7.1875 18.625 C-7.8475 18.625 -8.5075 18.625 -9.1875 18.625 C-9.1875 12.685 -9.1875 6.745 -9.1875 0.625 C-7.8675 0.955 -6.5475 1.285 -5.1875 1.625 C-2.1875 -0.375 -2.1875 -0.375 0 0 Z " fill="#333333" transform="translate(289.1875,287.375)"/>
<path d="M0 0 C0.66 0 1.32 0 2 0 C2 6.27 2 12.54 2 19 C1.01 19 0.02 19 -1 19 C-1.02683987 16.02077407 -1.04676037 13.04178705 -1.0625 10.0625 C-1.07087891 9.21236328 -1.07925781 8.36222656 -1.08789062 7.48632812 C-1.09111328 6.67744141 -1.09433594 5.86855469 -1.09765625 5.03515625 C-1.10289307 4.2862915 -1.10812988 3.53742676 -1.11352539 2.76586914 C-1 1 -1 1 0 0 Z " fill="#4E4E4E" transform="translate(273,287)"/>
<path d="M0 0 C0.66 0 1.32 0 2 0 C2 6.27 2 12.54 2 19 C1.01 19 0.02 19 -1 19 C-1.02683987 16.02077407 -1.04676037 13.04178705 -1.0625 10.0625 C-1.07087891 9.21236328 -1.07925781 8.36222656 -1.08789062 7.48632812 C-1.09111328 6.67744141 -1.09433594 5.86855469 -1.09765625 5.03515625 C-1.10289307 4.2862915 -1.10812988 3.53742676 -1.11352539 2.76586914 C-1 1 -1 1 0 0 Z " fill="#4E4E4E" transform="translate(342,201)"/>
<path d="M0 0 C0.33 0.66 0.66 1.32 1 2 C1.66 2 2.32 2 3 2 C3 5.3 3 8.6 3 12 C5.64 12 8.28 12 11 12 C11 12.33 11 12.66 11 13 C7.7 13 4.4 13 1 13 C1 16.96 1 20.92 1 25 C0.67 25 0.34 25 0 25 C0 16.75 0 8.5 0 0 Z " fill="#505050" transform="translate(260,195)"/>
<path d="M0 0 C0 0.66 0 1.32 0 2 C-0.78375 2.28875 -1.5675 2.5775 -2.375 2.875 C-5.09671632 3.84912254 -5.09671632 3.84912254 -7 6 C-7.46486718 9.12196336 -7.46486718 9.12196336 -7.625 12.625 C-7.69976562 13.81351562 -7.77453125 15.00203125 -7.8515625 16.2265625 C-7.90054687 17.14179688 -7.94953125 18.05703125 -8 19 C-8.66 19 -9.32 19 -10 19 C-10 13.06 -10 7.12 -10 1 C-9.34 1 -8.68 1 -8 1 C-7.67 1.66 -7.34 2.32 -7 3 C-6.5875 2.505 -6.175 2.01 -5.75 1.5 C-4 0 -4 0 0 0 Z " fill="#141414" transform="translate(364,244)"/>
<path d="M0 0 C6.48292295 -0.3669579 6.48292295 -0.3669579 8.9375 1.375 C10 3 10 3 10 5 C6.04 5 2.08 5 -2 5 C-1.34 3.35 -0.68 1.7 0 0 Z " fill="#F0F0F0" transform="translate(334,290)"/>
<path d="M0 0 C0.66 0 1.32 0 2 0 C2 5.94 2 11.88 2 18 C1.34 18 0.68 18 0 18 C-0.66 17.34 -1.32 16.68 -2 16 C-1.87109375 13.79296875 -1.87109375 13.79296875 -1.4375 11.1875 C-0.97349974 7.54404344 -0.85989318 6.30458005 -2.4375 2.875 C-2.953125 2.25625 -3.46875 1.6375 -4 1 C-3.01 1.33 -2.02 1.66 -1 2 C-0.67 1.34 -0.34 0.68 0 0 Z " fill="#131313" transform="translate(295,202)"/>
<path d="M0 0 C0.66 0.99 1.32 1.98 2 3 C-1 3 -1 3 -4.5 2.6875 C-5.655 2.790625 -6.81 2.89375 -8 3 C-9.93478871 5.19670262 -9.93478871 5.19670262 -11 8 C-11.391875 8.763125 -11.78375 9.52625 -12.1875 10.3125 C-12.5896875 11.1478125 -12.5896875 11.1478125 -13 12 C-13.32470459 7.86001651 -13.4304413 5.66000999 -11.125 2.125 C-7.35980684 -1.64019316 -5.10870235 -1.09472193 0 0 Z " fill="#1E1E1E" transform="translate(344,245)"/>
<path d="M0 0 C4.75 0.75 4.75 0.75 7 3 C7.3125 5.5 7.3125 5.5 7 8 C3.31282562 10.45811625 1.35654296 10.31118164 -3 10 C-3.99 9.34 -4.98 8.68 -6 8 C-6 7.34 -6 6.68 -6 6 C-5.01 6.33 -4.02 6.66 -3 7 C-0.66700175 7.03954234 1.66708189 7.04401732 4 7 C3.43628586 3.73045798 2.50037734 2.17424117 0 0 Z " fill="#1B1B1B" transform="translate(356,296)"/>
<path d="M0 0 C0.7734375 0.00386719 1.546875 0.00773438 2.34375 0.01171875 C4.5 0.3125 4.5 0.3125 7.5 2.3125 C7.5 2.9725 7.5 3.6325 7.5 4.3125 C6.984375 4.1475 6.46875 3.9825 5.9375 3.8125 C2.76636124 3.16201 -0.27218334 3.2504266 -3.5 3.3125 C-4.16 4.9625 -4.82 6.6125 -5.5 8.3125 C-6.16 8.3125 -6.82 8.3125 -7.5 8.3125 C-7.86568377 3.80240016 -7.86568377 3.80240016 -6.26953125 1.6640625 C-4.03241489 -0.04464006 -2.7880007 -0.06040668 0 0 Z " fill="#161616" transform="translate(307.5,237.6875)"/>
<path d="M0 0 C0.33 0 0.66 0 1 0 C1.28875 1.11375 1.5775 2.2275 1.875 3.375 C2.69241329 7.00291092 2.69241329 7.00291092 5 9 C7.44012949 9.24287489 7.44012949 9.24287489 10.125 9.125 C11.03507812 9.10695312 11.94515625 9.08890625 12.8828125 9.0703125 C13.58148438 9.04710937 14.28015625 9.02390625 15 9 C13 12 13 12 10.9765625 12.46875 C4.68624344 12.55234228 4.68624344 12.55234228 1.4375 9.9375 C-0.29233945 6.4026107 -0.30495508 3.88817732 0 0 Z " fill="#202020" transform="translate(302,208)"/>
<path d="M0 0 C0.6875 1.8125 0.6875 1.8125 1 4 C-0.57674699 6.11427437 -1.50591679 6.90718879 -4.12109375 7.3984375 C-10.37539063 7.33515625 -10.37539063 7.33515625 -13.5625 5.625 C-15 4 -15 4 -15 2 C-14.2575 2.495 -14.2575 2.495 -13.5 3 C-9.74404458 4.50238217 -7.04953637 4.38567013 -3 4 C-0.94729537 2.15811388 -0.94729537 2.15811388 0 0 Z " fill="#131313" transform="translate(314,256)"/>
<path d="M0 0 C0.94875 0.04125 1.8975 0.0825 2.875 0.125 C2.875 0.785 2.875 1.445 2.875 2.125 C1.225 2.125 -0.425 2.125 -2.125 2.125 C-2.063125 3.07375 -2.00125 4.0225 -1.9375 5 C-1.999375 6.03125 -2.06125 7.0625 -2.125 8.125 C-5.125 10.125 -5.125 10.125 -8.125 10.125 C-8.125 9.465 -8.125 8.805 -8.125 8.125 C-7.135 8.125 -6.145 8.125 -5.125 8.125 C-5.186875 6.701875 -5.186875 6.701875 -5.25 5.25 C-5.0773465 0.9336624 -4.3163376 0.1726535 0 0 Z " fill="#484848" transform="translate(335.125,193.875)"/>
<path d="M0 0 C0.66 0 1.32 0 2 0 C3.30062431 3.81516464 2.89369853 7.27561763 2.5625 11.25 C2.46066406 12.51328125 2.35882813 13.7765625 2.25390625 15.078125 C2.17011719 16.04234375 2.08632813 17.0065625 2 18 C1.34 18 0.68 18 0 18 C0 12.06 0 6.12 0 0 Z " fill="#070707" transform="translate(310,288)"/>
<path d="M0 0 C0.33 0 0.66 0 1 0 C1.37810444 5.04139251 0.54806876 9.60641642 -2 14 C-2.99 14.33 -3.98 14.66 -5 15 C-4.37321829 11.33827525 -3.35548154 8.1181005 -1.9375 4.6875 C-1.39416016 3.36298828 -1.39416016 3.36298828 -0.83984375 2.01171875 C-0.56269531 1.34785156 -0.28554687 0.68398438 0 0 Z " fill="#272727" transform="translate(256,283)"/>
<path d="M0 0 C1.74861792 -0.10853491 3.49919241 -0.18583428 5.25 -0.25 C6.22453125 -0.29640625 7.1990625 -0.3428125 8.203125 -0.390625 C11 0 11 0 15 4 C7.575 3.01 7.575 3.01 0 2 C0 1.34 0 0.68 0 0 Z " fill="#070707" transform="translate(261,195)"/>
<path d="M0 0 C0.268125 0.598125 0.53625 1.19625 0.8125 1.8125 C2.79191929 5.4587987 4.24031579 6.71698039 8.1875 8.1875 C9.115625 8.455625 10.04375 8.72375 11 9 C11 9.33 11 9.66 11 10 C4.72413793 10.48275862 4.72413793 10.48275862 1.5625 8.375 C-0.39644605 5.397402 -0.31785906 3.49644963 0 0 Z " fill="#181818" transform="translate(332,253)"/>
<path d="M0 0 C1.21236328 0.04060547 1.21236328 0.04060547 2.44921875 0.08203125 C3.06410156 0.11683594 3.67898438 0.15164063 4.3125 0.1875 C4.3125 0.5175 4.3125 0.8475 4.3125 1.1875 C3.054375 1.208125 1.79625 1.22875 0.5 1.25 C-1.70449328 1.41792535 -1.70449328 1.41792535 -3.6875 2.1875 C-5.37733507 4.47730909 -5.87712861 6.40184833 -6.6875 9.1875 C-7.3475 9.1875 -8.0075 9.1875 -8.6875 9.1875 C-8.07965686 3.71691176 -8.07965686 3.71691176 -6.4375 1.5 C-4.15842501 -0.20930624 -2.81509329 -0.12239536 0 0 Z " fill="#141414" transform="translate(256.6875,296.8125)"/>
<path d="M0 0 C0.99 0.33 1.98 0.66 3 1 C1.09598862 2.90401138 -0.33425686 3.93520439 -3.046875 4.19921875 C-5.03233273 4.1886578 -7.0169914 4.09915043 -9 4 C-9 3.34 -9 2.68 -9 2 C-6.94921875 1.77213542 -4.8984375 1.54427083 -2.84765625 1.31640625 C-0.98859771 1.18113386 -0.98859771 1.18113386 0 0 Z " fill="#212121" transform="translate(343,302)"/>
<path d="M0 0 C3.375 0.3125 3.375 0.3125 7 1 C7.66 1.99 8.32 2.98 9 4 C6.03 3.67 3.06 3.34 0 3 C0 2.01 0 1.02 0 0 Z " fill="#474747" transform="translate(354,287)"/>
<path d="M0 0 C2.31 0.33 4.62 0.66 7 1 C6.67 1.66 6.34 2.32 6 3 C3.93359375 3.4140625 3.93359375 3.4140625 1.4375 3.625 C0.61121094 3.69976562 -0.21507812 3.77453125 -1.06640625 3.8515625 C-2.02353516 3.92503906 -2.02353516 3.92503906 -3 4 C-2.01 2.68 -1.02 1.36 0 0 Z " fill="#343434" transform="translate(335,287)"/>
<path d="M0 0 C0.7425 0.0825 1.485 0.165 2.25 0.25 C2.25 1.24 2.25 2.23 2.25 3.25 C-2.205 3.745 -2.205 3.745 -6.75 4.25 C-3.42692308 0.31153846 -3.42692308 0.31153846 0 0 Z " fill="#424242" transform="translate(318.75,286.75)"/>
<path d="M0 0 C0.33 0 0.66 0 1 0 C1.33 3.96 1.66 7.92 2 12 C2.99 12.33 3.98 12.66 5 13 C5 13.66 5 14.32 5 15 C3.35 14.67 1.7 14.34 0 14 C0 9.38 0 4.76 0 0 Z " fill="#090909" transform="translate(322,248)"/>
<path d="M0 0 C0.66 0 1.32 0 2 0 C2 3.3 2 6.6 2 10 C1.01 10.495 1.01 10.495 0 11 C-1.125 3.375 -1.125 3.375 0 0 Z " fill="#020202" transform="translate(346,245)"/>
<path d="M0 0 C3.375 0.3125 3.375 0.3125 7 1 C7.66 1.99 8.32 2.98 9 4 C5.61976483 4 3.16531063 3.12544378 0 2 C0 1.34 0 0.68 0 0 Z " fill="#444444" transform="translate(337,244)"/>
<path d="M0 0 C5.625 -0.25 5.625 -0.25 9 2 C9 2.66 9 3.32 9 4 C6.98177083 3.73958333 4.96354167 3.47916667 2.9453125 3.21875 C0.99501656 2.9627515 0.99501656 2.9627515 -1 3 C-0.67 2.01 -0.34 1.02 0 0 Z " fill="#282828" transform="translate(354,201)"/>
<path d="M0 0 C5.625 -0.25 5.625 -0.25 9 2 C9 2.66 9 3.32 9 4 C4.545 3.01 4.545 3.01 0 2 C0 1.34 0 0.68 0 0 Z " fill="#333333" transform="translate(308,201)"/>
<path d="M0 0 C1.4540625 0.0309375 1.4540625 0.0309375 2.9375 0.0625 C2.9375 0.7225 2.9375 1.3825 2.9375 2.0625 C2.15375 2.145 1.37 2.2275 0.5625 2.3125 C-2.20999104 2.79056339 -2.20999104 2.79056339 -3.375 5.125 C-3.7153125 6.0840625 -3.7153125 6.0840625 -4.0625 7.0625 C-4.10504356 5.06295254 -4.10330783 3.06208364 -4.0625 1.0625 C-3.0625 0.0625 -3.0625 0.0625 0 0 Z " fill="#1D1D1D" transform="translate(335.0625,193.9375)"/>
<path d="M0 0 C1.9375 0.625 1.9375 0.625 4 2 C4.75 5.125 4.75 5.125 5 8 C4.01 7.67 3.02 7.34 2 7 C0.8125 3.4375 0.8125 3.4375 0 0 Z " fill="#2C2C2C" transform="translate(311,251)"/>
<path d="M0 0 C0.33 0 0.66 0 1 0 C1.28875 1.093125 1.5775 2.18625 1.875 3.3125 C2.81893204 7.04013845 2.81893204 7.04013845 5 10 C4.01 10 3.02 10 2 10 C-0.4294516 6.3558226 -0.16179575 4.28758728 0 0 Z " fill="#0C0C0C" transform="translate(302,208)"/>
</svg>
