<?xml version="1.0" encoding="UTF-8"?>
<svg version="1.1" xmlns="http://www.w3.org/2000/svg" width="500" height="500">
<path d="M0 0 C165 0 330 0 500 0 C500 165 500 330 500 500 C335 500 170 500 0 500 C0 335 0 170 0 0 Z " fill="#FEFEFE" transform="translate(0,0)"/>
<path d="M0 0 C0.66 0 1.32 0 2 0 C2.3403125 0.7307373 2.680625 1.46147461 3.03125 2.21435547 C10.01174626 17.19875187 17.01531677 32.17184465 24.0625 47.125 C30.01587602 59.75885199 35.92063957 72.41416457 41.79296875 85.0859375 C45.16207884 92.35475885 48.5479772 99.61568192 51.9375 106.875 C52.22620972 107.4933371 52.51491943 108.11167419 52.81237793 108.74874878 C53.98220952 111.25410134 55.1520957 113.75942839 56.32211304 116.26469421 C58.45445296 120.83074448 60.58499909 125.3976291 62.71484375 129.96484375 C63.63866639 131.94558429 64.56251023 133.92631494 65.48635864 135.90704346 C66.33475048 137.72619555 67.18288459 139.54546784 68.03100586 141.36474609 C69.11378354 143.68589457 70.21235106 145.99973934 71.32617188 148.30615234 C72.56556908 150.93437191 73.57825706 153.57898979 74.53320312 156.32275391 C78.19964572 166.25243615 82.3385764 171.01178828 91.98449707 175.49142456 C94.55912411 176.61375792 97.1525139 177.68178362 99.75 178.75 C101.56573488 179.54634155 103.3790354 180.34825524 105.18994141 181.15551758 C108.79082309 182.75259238 112.40181898 184.32117622 116.02636719 185.86376953 C122.55084297 188.64830432 128.95856558 191.66296298 135.375 194.6875 C137.59043246 195.71378094 139.80658599 196.73850667 142.0234375 197.76171875 C150.03306749 201.47082199 158.01621823 205.23569012 166 209 C177.42618791 214.38673161 188.86820784 219.73646193 200.33227539 225.04223633 C206.93911952 228.10373572 213.53475522 231.1876387 220.12109375 234.29296875 C220.89611237 234.65830719 221.67113098 235.02364563 222.46963501 235.40005493 C226.27968572 237.19667511 230.08870898 238.99543771 233.89648438 240.796875 C235.28384018 241.45185253 236.67120932 242.10680184 238.05859375 242.76171875 C238.68753036 243.06007126 239.31646698 243.35842377 239.96446228 243.66581726 C243.27039102 245.22484352 246.58996935 246.68361454 250 248 C250 248.66 250 249.32 250 250 C248.96335205 250.48073975 248.96335205 250.48073975 247.90576172 250.97119141 C230.52014013 259.03503919 213.14670606 267.12462358 195.78222656 275.23388672 C190.14634968 277.86574346 184.50963683 280.49580879 178.87298584 283.12600708 C175.74862288 284.58393113 172.62431419 286.04197146 169.5 287.5 C168.25000026 288.08333389 167.00000026 288.66666722 165.75 289.25 C165.13125 289.53875 164.5125 289.8275 163.875 290.125 C158.25 292.75 158.25 292.75 156.37515259 293.62492371 C155.12463876 294.20850022 153.87413014 294.79208787 152.62362671 295.37568665 C149.50653067 296.83039062 146.3893457 298.2849034 143.27197266 299.73901367 C137.55265946 302.40704404 131.83410782 305.07665914 126.11875916 307.75317383 C123.5116124 308.973976 120.90397781 310.19373411 118.29629517 311.41339111 C117.02342406 312.00905686 115.75077696 312.60520154 114.47836304 313.20184326 C108.27243021 316.11144015 102.05953978 318.99598025 95.77734375 321.73828125 C94.37766357 322.35159302 94.37766357 322.35159302 92.94970703 322.97729492 C91.25328503 323.715573 89.55270342 324.44440349 87.84716797 325.16137695 C87.10998535 325.48195068 86.37280273 325.80252441 85.61328125 326.1328125 C84.98204346 326.39980957 84.35080566 326.66680664 83.70043945 326.94189453 C79.82173705 329.35543311 78.19694924 333.4365993 76.35546875 337.4609375 C75.85088135 338.55647949 75.34629395 339.65202148 74.82641602 340.78076172 C74.01515259 342.55990967 74.01515259 342.55990967 73.1875 344.375 C72.61114783 345.62932286 72.03423232 346.883387 71.45678711 348.13720703 C70.55330677 350.09921737 69.6502185 352.06139941 68.74885559 354.02438354 C65.8361304 360.36746276 62.88731558 366.69341999 59.93130493 373.01641846 C58.76001726 375.52208293 57.59000265 378.02834106 56.41993713 380.53457642 C55.53546014 382.4290366 54.65080273 384.32341245 53.76611328 386.21777344 C51.13434313 391.8534649 48.50437431 397.48999695 45.87426758 403.12646484 C44.9989231 405.00230778 44.12349827 406.87811321 43.24804688 408.75390625 C40.6316079 414.36010548 38.01543865 419.96642968 35.40077209 425.57345581 C34.24406621 428.05390269 33.08715155 430.53425217 31.9302063 433.0145874 C31.35319633 434.25173022 30.77627125 435.48891265 30.19943237 436.72613525 C26.82233023 443.96907255 23.43482928 451.20696372 20.03125 458.4375 C19.36186496 459.86082441 18.69251256 461.28416416 18.02319336 462.70751953 C16.76331861 465.38668698 15.50077392 468.06457135 14.23657227 470.74169922 C9.99078063 479.75685507 5.95352303 488.85310503 2 498 C1.34 498 0.68 498 0 498 C-8.64901847 479.6616054 -17.26766139 461.3103642 -25.79296875 442.9140625 C-30.6266416 432.48546164 -35.49435813 422.07273876 -40.35836792 411.65826416 C-42.3855206 407.3174137 -44.41014632 402.97539119 -46.43359375 398.6328125 C-53.42038146 383.64119175 -60.44002624 368.66543918 -67.49560547 353.70605469 C-67.81289612 353.03061615 -68.13018677 352.35517761 -68.45709229 351.65927124 C-69.08665297 350.32810929 -69.72360075 349.00041442 -70.36810303 347.67642212 C-71.84744863 344.61262892 -73.09632654 341.70174479 -74.14599609 338.45166016 C-76.80544111 330.75350264 -80.26379219 327.54249513 -87.3515625 324.03125 C-90.74506752 322.44477421 -94.17965494 320.96964188 -97.625 319.5 C-99.44634987 318.68552355 -101.2658388 317.86687359 -103.08349609 317.04418945 C-106.70550597 315.41130425 -110.3359207 313.80037393 -113.9765625 312.20947266 C-120.58137217 309.31784642 -127.09943721 306.25298583 -133.625 303.1875 C-135.8482123 302.15724276 -138.07216825 301.12858868 -140.296875 300.1015625 C-147.49788459 296.77295423 -154.68712981 293.41934767 -161.875 290.0625 C-163.13362166 289.47484356 -164.39224796 288.88719707 -165.65087891 288.29956055 C-168.17322924 287.12185644 -170.69551797 285.94402052 -173.21777344 284.76611328 C-176.98083466 283.00882897 -180.74426497 281.25233626 -184.5078125 279.49609375 C-185.12693008 279.20718262 -185.74604767 278.91827148 -186.38392639 278.62060547 C-189.49183508 277.1703307 -192.59978593 275.72014631 -195.70776367 274.27001953 C-201.50956645 271.56288978 -207.31103545 268.85505224 -213.11129761 266.1446228 C-215.81893752 264.87941294 -218.52677142 263.61461855 -221.23461914 262.34985352 C-222.51205932 261.75305467 -223.78940687 261.15605751 -225.06665039 260.55883789 C-232.69091726 256.99391461 -240.32943978 253.46428123 -248 250 C-248 249.34 -248 248.68 -248 248 C-229.50374401 239.21323996 -211.00660104 230.43156958 -192.42089844 221.83520508 C-183.26206739 217.59576642 -174.12866077 213.30387486 -165 209 C-153.57229806 203.61263658 -142.12866987 198.26249108 -130.66333008 192.95556641 C-124.08184993 189.90557755 -117.51094312 186.83441476 -110.94921875 183.7421875 C-110.17893341 183.3792157 -109.40864807 183.0162439 -108.61502075 182.64227295 C-104.83544843 180.86062534 -101.05683018 179.07698216 -97.27929688 177.29101562 C-95.89844466 176.63930774 -94.51758561 175.98761434 -93.13671875 175.3359375 C-92.51810471 175.04274628 -91.89949066 174.74955505 -91.26213074 174.44747925 C-88.28977743 173.04578374 -85.39382383 171.78932411 -82.28466797 170.70874023 C-78.27074212 168.62062763 -77.00998764 166.3217645 -75.30859375 162.32421875 C-74.84802834 161.32135582 -74.84802834 161.32135582 -74.37815857 160.29823303 C-73.37618423 158.10379595 -72.40725599 155.89633922 -71.4375 153.6875 C-70.7388318 152.14314456 -70.03778875 150.59986148 -69.33447266 149.05761719 C-67.89859153 145.90234091 -66.47429163 142.74223656 -65.05908203 139.57763672 C-62.35493123 133.54440178 -59.54584126 127.56146703 -56.73318481 121.57827759 C-55.29217336 118.50834567 -53.86126206 115.43371587 -52.4296875 112.359375 C-51.85909384 111.13474495 -51.28845584 109.91013557 -50.71777344 108.68554688 C-50.43494507 108.07864014 -50.1521167 107.4717334 -49.86071777 106.84643555 C-47.53463239 101.85645292 -45.20555855 96.8678638 -42.87701416 91.87902832 C-41.41786274 88.75275401 -39.95894289 85.62637163 -38.5 82.5 C-37.91666778 81.24999948 -37.33333445 79.99999948 -36.75 78.75 C-36.46125 78.13125 -36.1725 77.5125 -35.875 76.875 C-23.91666667 51.25 -11.95833333 25.625 0 0 Z " fill="#545455" transform="translate(249,1)"/>
<path d="M0 0 C0.66 0 1.32 0 2 0 C11.746748 20.58642501 21.45059042 41.19050522 31.01196289 61.86383057 C34.28323252 68.93642543 37.55657161 76.00806178 40.83087158 83.07925415 C42.10208424 85.82549437 43.37213134 88.57227144 44.64208984 91.3190918 C45.4306176 93.0226452 46.21918979 94.72617805 47.0078125 96.4296875 C47.36663513 97.20660446 47.72545776 97.98352142 48.09515381 98.78398132 C49.59662441 102.0248838 51.1187878 105.23157488 52.74951172 108.41064453 C54 111 54 111 54 113 C54.82677246 113.25418701 55.65354492 113.50837402 56.50537109 113.77026367 C60.45408473 115.15978935 64.14589528 116.86340213 67.9140625 118.67578125 C68.67264557 119.03702591 69.43122864 119.39827057 70.21279907 119.77046204 C71.83905837 120.54523486 73.4645977 121.32152042 75.08947754 122.09918213 C79.39734303 124.16061533 83.71067667 126.21055225 88.0234375 128.26171875 C88.88437012 128.67151978 89.74530273 129.0813208 90.63232422 129.50354004 C97.81817399 132.92124211 105.02678793 136.28689111 112.25 139.625 C119.85710144 143.14158097 127.45428809 146.67726627 135.03515625 150.25 C136.19206467 150.79519791 136.19206467 150.79519791 137.37234497 151.35140991 C141.15643523 153.13536577 144.93955985 154.92134344 148.72167969 156.70947266 C150.10220587 157.36101885 151.48273937 158.01254955 152.86328125 158.6640625 C153.48187515 158.95724365 154.10046906 159.2504248 154.73780823 159.55249023 C158.78895389 161.46292408 162.87554571 163.25578678 167 165 C167 165.66 167 166.32 167 167 C151.09370978 174.43893712 135.17519698 181.85080969 119.23974609 189.2270813 C106.18773981 195.26911824 93.13883733 201.31759157 80.11273193 207.41531372 C78.77020054 208.04373479 77.42747507 208.67174144 76.08453369 209.29928589 C75.45351746 209.59424957 74.82250122 209.88921326 74.17236328 210.19311523 C73.56213821 210.47796783 72.95191315 210.76282043 72.32319641 211.05630493 C70.58728518 211.87388577 68.86047887 212.71071193 67.1340332 213.5480957 C64 215 64 215 61.18432617 215.97338867 C54.464828 218.49949185 51.94252191 222.71118462 49.03355408 228.98297119 C48.06509425 231.16804463 47.1263709 233.36457107 46.1875 235.5625 C45.50076475 237.10332099 44.8107758 238.6426956 44.11767578 240.18066406 C42.71764222 243.29704501 41.33378649 246.41979799 39.96337891 249.54931641 C37.20495078 255.83175728 34.28592092 262.03695123 31.375 268.25 C30.32453267 270.51516701 29.2750573 272.78079428 28.2265625 275.046875 C25.96028269 279.93690082 23.68335271 284.82179127 21.3984375 289.703125 C14.82271497 303.75374864 8.30386721 317.82463723 2 332 C1.34 332 0.68 332 0 332 C-9.53134568 311.86853326 -19.01435875 291.71711394 -28.37451172 271.50537109 C-29.80730937 268.41553802 -31.24236167 265.32678588 -32.68031311 262.23934937 C-33.2911065 260.92778794 -33.90132738 259.61595975 -34.51097107 258.30386353 C-36.01680223 255.06653162 -37.53423063 251.83569858 -39.07788086 248.61621094 C-41.63783166 243.25428495 -44.10388354 237.95893642 -45.96875 232.30859375 C-49.01479592 223.48641125 -52.30281175 218.61563762 -60.81738281 214.40380859 C-64.78269889 212.6547623 -68.78985481 211.03494381 -72.83111572 209.46969604 C-80.84303017 206.34360696 -88.58592934 202.63823763 -96.36712646 198.98394775 C-99.88199343 197.3366365 -103.40464021 195.70633796 -106.92721558 194.07559204 C-118.98560773 188.49129883 -131.0127648 182.84094341 -143.02734375 177.16308594 C-150.32507187 173.71599462 -157.63932906 170.31124738 -165 167 C-165 166.34 -165 165.68 -165 165 C-126.00186955 146.41836432 -126.00186955 146.41836432 -107.36108398 137.80419922 C-96.36496744 132.71933671 -85.40739485 127.55349596 -74.45361328 122.37817383 C-54.5906443 113 -54.5906443 113 -52 113 C-51.72704102 112.13568359 -51.45408203 111.27136719 -51.17285156 110.38085938 C-50.03553482 107.10243261 -48.71164395 104.04459106 -47.234375 100.90625 C-46.68136719 99.72675781 -46.12835938 98.54726562 -45.55859375 97.33203125 C-44.9557556 96.05467502 -44.35289026 94.77733163 -43.75 93.5 C-43.12074207 92.16032138 -42.4918423 90.82047448 -41.86328125 89.48046875 C-40.55802569 86.69856545 -39.25123677 83.91739034 -37.94335938 81.13671875 C-35.23683827 75.3793936 -32.54911568 69.61331884 -29.86126709 63.84725952 C-28.41626441 60.74799451 -26.96974248 57.64943868 -25.5234375 54.55078125 C-23.42205247 50.04809192 -21.32132194 45.5450979 -19.22122192 41.04180908 C-12.83638288 27.35072419 -6.44975774 13.66066701 0 0 Z " fill="#535AFE" transform="translate(249,84)"/>
<path d="M0 0 C0.66 0 1.32 0 2 0 C4.11063104 4.46298782 6.21872481 8.92716329 8.32479858 13.39230347 C9.06471246 14.96010266 9.80528943 16.5275891 10.54653931 18.09475708 C17.72509144 33.27384201 17.72509144 33.27384201 20.890625 40.60546875 C21.48919312 41.98750488 21.48919312 41.98750488 22.09985352 43.39746094 C22.80408049 45.04207989 23.49555641 46.69224201 24.17163086 48.34863281 C27.03637344 55.0322832 31.25011812 56.71348446 37.55078125 59.75 C38.63125732 60.27118408 39.7117334 60.79236816 40.82495117 61.3293457 C42.55128784 62.15631958 42.55128784 62.15631958 44.3125 63 C45.49626221 63.56871826 46.68002441 64.13743652 47.8996582 64.72338867 C59.53104564 70.29818877 71.24996433 75.6802356 83 81 C83 81.66 83 82.32 83 83 C73.00510878 87.67765022 63.00518015 92.34439809 53 97 C52.37085693 97.29287903 51.74171387 97.58575806 51.09350586 97.88751221 C47.14869637 99.72326104 43.20033672 101.55117968 39.25 103.375 C38.24001953 103.84462158 37.23003906 104.31424316 36.18945312 104.7980957 C35.26583984 105.2230835 34.34222656 105.64807129 33.390625 106.0859375 C32.58657227 106.4576709 31.78251953 106.8294043 30.95410156 107.21240234 C29 108 29 108 27 108 C26.75685059 108.79946045 26.51370117 109.5989209 26.26318359 110.42260742 C24.7051953 114.83490012 22.77411471 119.00452635 20.7890625 123.23828125 C20.37965424 124.11848434 19.97024597 124.99868744 19.5484314 125.90556335 C18.24366207 128.70930421 16.93451649 131.51097366 15.625 134.3125 C14.32348352 137.10370692 13.0228938 139.89534242 11.72299194 142.68730164 C10.91603472 144.41977121 10.10801835 146.151748 9.29873657 147.88313293 C6.80449193 153.22897533 4.37700932 158.60100974 2 164 C1.34 164 0.68 164 0 164 C-2.27473285 159.18439985 -4.54930035 154.36872165 -6.82373047 149.55297852 C-7.59354448 147.92307551 -8.36339962 146.29319192 -9.13330078 144.66333008 C-9.50310059 143.88046631 -9.87290039 143.09760254 -10.25390625 142.29101562 C-10.62467285 141.50624847 -10.99543945 140.72148132 -11.37744141 139.91293335 C-12.12659933 138.32608473 -12.87497026 136.73886432 -13.62255859 135.15127563 C-15.51522721 131.1333133 -17.41958519 127.12171458 -19.34765625 123.12060547 C-19.72019531 122.34261093 -20.09273437 121.56461639 -20.4765625 120.76304626 C-21.18411634 119.28598985 -21.89614124 117.81106429 -22.61328125 116.33863831 C-24.02701424 113.37643948 -25 111.32558804 -25 108 C-25.54672363 107.83088608 -26.09344727 107.66177216 -26.65673828 107.48753357 C-32.28747541 105.68674437 -37.55700159 103.48084072 -42.875 100.91015625 C-43.68437012 100.52435898 -44.49374023 100.13856171 -45.32763672 99.74107361 C-47.88747516 98.51979678 -50.44384954 97.29147431 -53 96.0625 C-55.55681232 94.83853013 -58.11433668 93.61606801 -60.67236328 92.39463806 C-62.25492374 91.63841841 -63.83669039 90.88053421 -65.41748047 90.12062073 C-70.57053061 87.65082382 -75.76680714 85.2949683 -81 83 C-81 82.34 -81 81.68 -81 81 C-75.89963467 78.58271391 -70.79912221 76.1657386 -65.69848633 73.74902344 C-63.97156006 72.93074477 -62.24467067 72.11238829 -60.51782227 71.29394531 C-58.84119716 70.49931775 -57.16407284 69.70574264 -55.4864502 68.91322327 C-53.8015032 68.11259116 -52.12027414 67.30409026 -50.44274902 66.48802185 C-46.44731906 64.55650497 -42.50011888 62.77311963 -38.30859375 61.30883789 C-28.2304243 57.61907984 -23.77674459 53.19836099 -19.23930359 43.43460083 C-18.08163971 40.78280654 -16.97704445 38.11281962 -15.875 35.4375 C-15.10153443 33.67155016 -14.32290764 31.90785163 -13.5390625 30.14648438 C-12.0262946 26.72860352 -10.54274345 23.30056466 -9.08496094 19.85888672 C-6.23390919 13.15666821 -3.12861329 6.57610207 0 0 Z " fill="#918EFF" transform="translate(249,168)"/>
</svg>
