<?xml version="1.0" encoding="UTF-8"?>
<svg version="1.1" xmlns="http://www.w3.org/2000/svg" width="500" height="500">
<path d="M0 0 C165 0 330 0 500 0 C500 165 500 330 500 500 C335 500 170 500 0 500 C0 335 0 170 0 0 Z " fill="#FEFEFE" transform="translate(0,0)"/>
<path d="M0 0 C2.7587207 1.21141428 4.85877825 2.85877825 7 5 C7.66 3.68 8.32 2.36 9 1 C10.32 1.33 11.64 1.66 13 2 C13 13.55 13 25.1 13 37 C11.02 37.495 11.02 37.495 9 38 C8.34 36.68 7.68 35.36 7 34 C5.6078125 34.9590625 5.6078125 34.9590625 4.1875 35.9375 C-0.39312184 38.90143178 -3.58290675 39.53282884 -9 39 C-15.1782967 36.42955193 -18.1917142 32.9535659 -21 27 C-21.33 26.34 -21.66 25.68 -22 25 C-22.75253897 18.0121381 -22.67087353 12.40590246 -18.4375 6.62109375 C-12.90568075 0.38276498 -8.09449725 -0.94208544 0 0 Z " fill="#F6F6F6" transform="translate(106,169)"/>
<path d="M0 0 C0.99451172 -0.02900391 1.98902344 -0.05800781 3.01367188 -0.08789062 C9.14029178 -0.14088201 12.65963248 0.21797658 17.3125 4.3125 C20.92071958 8.39548532 22.02794924 11.66930161 21.7578125 17 C20.97613733 21.05922544 19.28058346 24.42921893 16.3125 27.3125 C10.87296915 30.29744256 6.49563292 30.70292367 0.375 30.5 C-3.6159375 30.4071875 -3.6159375 30.4071875 -7.6875 30.3125 C-7.6875 36.9125 -7.6875 43.5125 -7.6875 50.3125 C-9.6675 50.8075 -9.6675 50.8075 -11.6875 51.3125 C-11.71276787 44.21005001 -11.73033201 37.10761152 -11.74243164 30.00512695 C-11.74747349 27.58682828 -11.75430678 25.16853267 -11.76293945 22.75024414 C-11.77501157 19.28270717 -11.78072963 15.81521034 -11.78515625 12.34765625 C-11.79031754 11.25912857 -11.79547882 10.17060089 -11.80079651 9.04908752 C-11.80087204 8.04812546 -11.80094757 7.04716339 -11.80102539 6.01586914 C-11.803246 5.12984512 -11.80546661 4.24382111 -11.80775452 3.33094788 C-11.49948402 -1.84331049 -3.92032641 0.03738391 0 0 Z " fill="#131313" transform="translate(56.6875,155.6875)"/>
<path d="M0 0 C3 1 3 1 4.68579102 4.33886719 C5.30316647 5.82019559 5.90838107 7.30662802 6.50390625 8.796875 C6.82785873 9.5826593 7.15181122 10.3684436 7.48558044 11.17803955 C8.52160168 13.69791649 9.54215107 16.22374188 10.5625 18.75 C11.25355343 20.43791134 11.945599 22.12541686 12.63867188 23.8125 C14.18980766 27.59520552 15.73444542 31.38037448 17.26004028 35.17346191 C17.8932388 36.73646755 18.54609847 38.29148354 19.20288086 39.84472656 C20.12642218 42.34182389 20.15093811 44.35858309 20 47 C19.01 47 18.02 47 17 47 C16.16209211 45.21046815 15.32980604 43.41830305 14.5 41.625 C14.0359375 40.62726563 13.571875 39.62953125 13.09375 38.6015625 C12 36 12 36 12 34 C4.74 34.33 -2.52 34.66 -10 35 C-11.65 38.96 -13.3 42.92 -15 47 C-16.32 46.67 -17.64 46.34 -19 46 C-16.45349701 37.78729294 -13.18513864 29.89816812 -9.90209961 21.95947266 C-8.93196834 19.61161258 -7.96864908 17.26103499 -7.00585938 14.91015625 C-6.38842513 13.41129173 -5.77060062 11.91258789 -5.15234375 10.4140625 C-4.86584457 9.71407135 -4.5793454 9.0140802 -4.28416443 8.2928772 C-3.04454535 5.30709178 -1.80036581 2.70054872 0 0 Z " fill="#121212" transform="translate(271,267)"/>
<path d="M0 0 C3.4375 2 3.4375 2 6 4 C6.33 3.01 6.66 2.02 7 1 C7.99 1 8.98 1 10 1 C10 10.24 10 19.48 10 29 C9.01 28.67 8.02 28.34 7 28 C6.67 27.34 6.34 26.68 6 26 C5.44054687 26.4846875 4.88109375 26.969375 4.3046875 27.46875 C0.4302745 30.04293626 -3.51491313 29.76402111 -8 29 C-11.90236075 26.99307161 -14.35475477 24.03900294 -16 20 C-16.70358198 15.11583208 -16.63851284 10.48851634 -14.3125 6.0625 C-10.2211234 0.64419045 -6.80196299 -0.83532879 0 0 Z " fill="#F7F7F7" transform="translate(236,230)"/>
<path d="M0 0 C4.78924463 2.15739805 7.64002373 4.41471287 9.90234375 9.31640625 C9.90234375 11.95640625 9.90234375 14.59640625 9.90234375 17.31640625 C0.99234375 17.31640625 -7.91765625 17.31640625 -17.09765625 17.31640625 C-14.05133776 25.61124649 -14.05133776 25.61124649 -8.09765625 30.31640625 C-2.84829513 31.2339775 0.51105564 30.36591188 4.90234375 27.31640625 C7.21484375 26.62890625 7.21484375 26.62890625 8.90234375 26.31640625 C8.77734375 28.06640625 8.77734375 28.06640625 7.90234375 30.31640625 C2.59225314 34.35669258 -1.40573858 35.97462766 -8.09765625 35.31640625 C-12.56936395 33.26516419 -16.62713507 30.67614951 -19.09765625 26.31640625 C-21.18348568 20.05891796 -21.23233645 12.71184222 -18.41015625 6.75390625 C-12.92963629 0.97714196 -8.23542026 -2.68379617 0 0 Z " fill="#131313" transform="translate(425.09765625,279.68359375)"/>
<path d="M0 0 C2.03770729 2.60406146 3.71804689 5.16357343 5.1875 8.125 C5.53167969 8.80820313 5.87585938 9.49140625 6.23046875 10.1953125 C7 12 7 12 7 14 C7.60328125 14.19335938 8.2065625 14.38671875 8.828125 14.5859375 C9.62734375 14.84632813 10.4265625 15.10671875 11.25 15.375 C12.03890625 15.63023437 12.8278125 15.88546875 13.640625 16.1484375 C15.86627958 16.95173667 17.90931672 17.89711662 20 19 C20 19.66 20 20.32 20 21 C18.39967863 21.84069415 16.79458829 22.67231505 15.1875 23.5 C14.29417969 23.9640625 13.40085937 24.428125 12.48046875 24.90625 C10 26 10 26 7 26 C6.7525 26.825 6.505 27.65 6.25 28.5 C4.81295189 32.52373471 2.97645485 36.21979024 1 40 C-1.7142663 37.64610239 -2.63598935 35.52054105 -3.875 32.1875 C-6.75590386 26.05772637 -11.26271756 24.39944089 -17.33203125 21.9609375 C-18.21246094 21.64382812 -19.09289062 21.32671875 -20 21 C-20 20.34 -20 19.68 -20 19 C-19.14277344 18.71769531 -18.28554688 18.43539062 -17.40234375 18.14453125 C-8.23730608 14.62110639 -5.10503908 11.35812334 -1.07421875 2.6328125 C-0.71972656 1.76398438 -0.36523438 0.89515625 0 0 Z " fill="#575EFF" transform="translate(289,219)"/>
<path d="M0 0 C2.7587207 1.21141428 4.85877825 2.85877825 7 5 C7.66 3.68 8.32 2.36 9 1 C10.32 1.33 11.64 1.66 13 2 C13 13.55 13 25.1 13 37 C11.02 37.495 11.02 37.495 9 38 C8.34 36.68 7.68 35.36 7 34 C5.6078125 34.9590625 5.6078125 34.9590625 4.1875 35.9375 C-0.39312184 38.90143178 -3.58290675 39.53282884 -9 39 C-15.1782967 36.42955193 -18.1917142 32.9535659 -21 27 C-21.33 26.34 -21.66 25.68 -22 25 C-22.75253897 18.0121381 -22.67087353 12.40590246 -18.4375 6.62109375 C-12.90568075 0.38276498 -8.09449725 -0.94208544 0 0 Z M-15.2578125 9.578125 C-18.34623221 14.37273461 -18.7679219 18.41407899 -17.5625 24.04296875 C-16.17201313 28.67502812 -14.15513432 31.63258526 -10.03125 34.21875 C-6.23028902 35.68065807 -2.8252933 35.17922575 1 34 C5.30002497 31.4760723 7.32402774 28.67508051 9 24 C9.9755956 17.48016601 8.84596898 13.30120049 5 8 C1.97224235 4.71992922 0.53529004 4.06797334 -3.9375 3.5 C-8.84521863 3.78651465 -12.16448869 5.69706034 -15.2578125 9.578125 Z " fill="#121212" transform="translate(106,169)"/>
<path d="M0 0 C4.5478125 -0.1546875 4.5478125 -0.1546875 9.1875 -0.3125 C10.13391357 -0.35802002 11.08032715 -0.40354004 12.05541992 -0.45043945 C16.44379257 -0.52263962 18.42675977 -0.41809389 22.07421875 2.2421875 C23.98716356 4.98161759 24.68342938 6.15961186 24.625 9.4375 C24.63789062 10.15808594 24.65078125 10.87867188 24.6640625 11.62109375 C23.65587491 15.23277755 22.04780838 17.85406741 19 20 C15.68755299 20.721461 12.55704936 20.56947982 9.1875 20.375 C4.6396875 20.189375 4.6396875 20.189375 0 20 C0 13.4 0 6.8 0 0 Z " fill="#FDFDFD" transform="translate(49,161)"/>
<path d="M0 0 C0.33 1.32 0.66 2.64 1 4 C-3.455 4.495 -3.455 4.495 -8 5 C-8.33 8.96 -8.66 12.92 -9 17 C-6.03 17 -3.06 17 0 17 C0 18.32 0 19.64 0 21 C-2.97 21 -5.94 21 -9 21 C-9 31.23 -9 41.46 -9 52 C-10.98 52.495 -10.98 52.495 -13 53 C-14 52 -14 52 -14.11352539 49.04077148 C-14.10828857 47.74727783 -14.10305176 46.45378418 -14.09765625 45.12109375 C-14.0962413 44.4344313 -14.09482635 43.74776886 -14.09336853 43.04029846 C-14.08775479 40.83932199 -14.07520007 38.63844591 -14.0625 36.4375 C-14.05748676 34.94856917 -14.05292355 33.45963676 -14.04882812 31.97070312 C-14.03778093 28.31376925 -14.02050713 24.65689442 -14 21 C-15.98 21 -17.96 21 -20 21 C-20.33 19.68 -20.66 18.36 -21 17 C-18.69 17 -16.38 17 -14 17 C-14.08701172 15.91332031 -14.08701172 15.91332031 -14.17578125 14.8046875 C-14.59104619 5.90615298 -14.59104619 5.90615298 -12.0625 2.3125 C-7.96528039 -0.78131889 -4.9584286 -0.58334454 0 0 Z " fill="#1A1A1A" transform="translate(201,154)"/>
<path d="M0 0 C2.9375 1.8125 2.9375 1.8125 3.875 4.5 C3.895625 5.263125 3.91625 6.02625 3.9375 6.8125 C0.97574877 6.19972388 -0.44308783 5.55877478 -3.0625 3.8125 C-7.7257034 3.04862287 -11.23254072 3.38215074 -15.4375 5.5625 C-18.75585291 8.40680249 -20.83896112 10.2192376 -21.4609375 14.65234375 C-21.45320312 15.67457031 -21.44546875 16.69679687 -21.4375 17.75 C-21.44523438 18.76964844 -21.45296875 19.78929687 -21.4609375 20.83984375 C-20.82483666 25.58565491 -18.92841297 28.08434591 -15.3125 31.125 C-11.46478336 33.12285287 -9.34609614 33.34794952 -5.0625 32.8125 C-3.0322411 31.87545743 -1.02553418 30.88324592 0.9375 29.8125 C1.9275 29.8125 2.9175 29.8125 3.9375 29.8125 C3.9375 31.1325 3.9375 32.4525 3.9375 33.8125 C-2.63613902 37.22105357 -7.71045512 39.24915477 -15.12890625 37.2578125 C-20.49788109 35.11837281 -23.27918117 31.61732112 -25.99609375 26.60546875 C-28.23191198 20.74975433 -27.93338314 15.28764156 -25.875 9.4375 C-19.34418641 -0.02091968 -11.16045718 -4.02696909 0 0 Z " fill="#131313" transform="translate(250.0625,170.1875)"/>
<path d="M0 0 C2.9375 1.8125 2.9375 1.8125 3.875 4.5 C3.895625 5.263125 3.91625 6.02625 3.9375 6.8125 C0.97574877 6.19972388 -0.44308783 5.55877478 -3.0625 3.8125 C-7.7257034 3.04862287 -11.23254072 3.38215074 -15.4375 5.5625 C-18.75585291 8.40680249 -20.83896112 10.2192376 -21.4609375 14.65234375 C-21.45320312 15.67457031 -21.44546875 16.69679687 -21.4375 17.75 C-21.44523438 18.76964844 -21.45296875 19.78929687 -21.4609375 20.83984375 C-20.82483666 25.58565491 -18.92841297 28.08434591 -15.3125 31.125 C-11.46478336 33.12285287 -9.34609614 33.34794952 -5.0625 32.8125 C-3.0322411 31.87545743 -1.02553418 30.88324592 0.9375 29.8125 C1.9275 29.8125 2.9175 29.8125 3.9375 29.8125 C3.9375 31.1325 3.9375 32.4525 3.9375 33.8125 C-2.63613902 37.22105357 -7.71045512 39.24915477 -15.12890625 37.2578125 C-20.49788109 35.11837281 -23.27918117 31.61732112 -25.99609375 26.60546875 C-28.23191198 20.74975433 -27.93338314 15.28764156 -25.875 9.4375 C-19.34418641 -0.02091968 -11.16045718 -4.02696909 0 0 Z " fill="#131313" transform="translate(155.0625,170.1875)"/>
<path d="M0 0 C2.70552388 2.19823815 4.44778333 3.89556667 6 7 C6.08510205 8.9593604 6.10717656 10.92162794 6.09765625 12.8828125 C6.09443359 14.04941406 6.09121094 15.21601563 6.08789062 16.41796875 C6.07951172 17.64128906 6.07113281 18.86460937 6.0625 20.125 C6.05798828 21.35605469 6.05347656 22.58710938 6.04882812 23.85546875 C6.0370133 26.90369392 6.02054028 29.95182314 6 33 C4.68 33 3.36 33 2 33 C1.97494385 32.29391602 1.9498877 31.58783203 1.92407227 30.86035156 C1.80792631 27.65672491 1.68528397 24.45337882 1.5625 21.25 C1.52318359 20.13882812 1.48386719 19.02765625 1.44335938 17.8828125 C1.40146484 16.81289063 1.35957031 15.74296875 1.31640625 14.640625 C1.27974854 13.65610352 1.24309082 12.67158203 1.20532227 11.65722656 C1.02401258 9.31076449 0.65668181 7.25281588 0 5 C-3.71616032 3.8108287 -7.12097502 3.65973465 -11 4 C-13.75329021 5.79562405 -15.52627461 7.05254922 -17 10 C-17.15266612 11.73868744 -17.24932596 13.48247501 -17.31640625 15.2265625 C-17.35830078 16.2578125 -17.40019531 17.2890625 -17.44335938 18.3515625 C-17.50233398 19.97191406 -17.50233398 19.97191406 -17.5625 21.625 C-17.60568359 22.71296875 -17.64886719 23.8009375 -17.69335938 24.921875 C-17.7996453 27.6144517 -17.90168057 30.30712253 -18 33 C-19.32 33 -20.64 33 -22 33 C-22 22.44 -22 11.88 -22 1 C-20.68 1 -19.36 1 -18 1 C-17.67 1.99 -17.34 2.98 -17 4 C-16.236875 3.360625 -15.47375 2.72125 -14.6875 2.0625 C-9.9189755 -1.59706531 -5.64069682 -1.47449794 0 0 Z " fill="#0D0D0D" transform="translate(390,280)"/>
<path d="M0 0 C5.54156171 2.82115869 5.54156171 2.82115869 6.875 6.25 C6.91625 6.8275 6.9575 7.405 7 8 C4.83264747 7.53556732 3.1100283 7.06449935 1.1875 5.9375 C-1.96364393 4.58700974 -4.61276691 4.75365578 -8 5 C-11.2243063 6.64137117 -11.2243063 6.64137117 -11.5 9.4375 C-11.2526853 12.13403125 -11.2526853 12.13403125 -9.0625 13.625 C-6.52314528 14.76511845 -4.15266021 15.57787339 -1.5 16.375 C2.74609011 17.74310583 5.32663355 19.29178202 8 23 C8.72150476 26.84802539 8.36104841 28.41162481 6.3125 31.75 C2.84662745 35.12220032 0.34653087 35.8775881 -4.4375 36.3125 C-9.11366329 35.90231024 -12.23024413 34.4158047 -15.875 31.5 C-17 30 -17 30 -17 27 C-14.5084595 27.44491795 -13.19733044 27.81728663 -11.3125 29.5625 C-7.78442401 31.75562832 -4.05698518 31.57529992 0 31 C0.99 30.34 1.98 29.68 3 29 C3.41666667 26.5 3.41666667 26.5 3 24 C0.50920062 21.50920062 -1.43619551 21.19919534 -4.8125 20.25 C-10.36055757 18.44288029 -13.24073673 17.21194173 -16 12 C-16.125 8.375 -16.125 8.375 -15 5 C-10.38026434 0.4987191 -6.41449755 -0.86875384 0 0 Z " fill="#151515" transform="translate(459,279)"/>
<path d="M0 0 C2.67426687 1.02505106 3.87144544 1.98650245 6 4 C6 4.99 6 5.98 6 7 C3.74202176 6.49822706 1.79756729 5.90699038 -0.3125 4.9375 C-4.55880839 3.45622963 -8.27733989 3.24909687 -12.4375 5.0625 C-14.76643994 7.95038552 -14.27050795 10.41576962 -14 14 C-11.33319883 15.06770453 -8.66528373 16.13171303 -5.9921875 17.18359375 C-4.96351563 17.59738281 -3.93484375 18.01117188 -2.875 18.4375 C-1.84117187 18.84871094 -0.80734375 19.25992188 0.2578125 19.68359375 C2.84167259 20.92399382 4.3529125 21.68085673 6 24 C6.74740141 27.41834753 6.6342076 30.56653128 6 34 C3.34134615 37.79807692 3.34134615 37.79807692 0 39 C-6.19848953 39.95361377 -12.04177097 40.26480645 -17.3125 36.5 C-18.199375 35.675 -19.08625 34.85 -20 34 C-19.67 33.01 -19.34 32.02 -19 31 C-15 33 -15 33 -13.140625 34.05078125 C-9.52623865 35.65351096 -5.87803499 35.49098058 -2 35 C0.5189267 33.68236671 0.5189267 33.68236671 2 32 C2.13071338 28.6137261 2.13071338 28.6137261 1 25 C-1.39034861 23.17794878 -4.05255036 22.29176731 -6.875 21.3125 C-16.00979616 17.96521529 -16.00979616 17.96521529 -18 14 C-18.64221857 8.94252874 -18.64221857 8.94252874 -18 6 C-12.75860749 -0.48277494 -7.98126286 -0.83067996 0 0 Z " fill="#121212" transform="translate(201,220)"/>
<path d="M0 0 C3.4375 2 3.4375 2 6 4 C6.33 3.01 6.66 2.02 7 1 C7.99 1 8.98 1 10 1 C10 10.24 10 19.48 10 29 C9.01 28.67 8.02 28.34 7 28 C6.67 27.34 6.34 26.68 6 26 C5.44054687 26.4846875 4.88109375 26.969375 4.3046875 27.46875 C0.4302745 30.04293626 -3.51491313 29.76402111 -8 29 C-11.90236075 26.99307161 -14.35475477 24.03900294 -16 20 C-16.70358198 15.11583208 -16.63851284 10.48851634 -14.3125 6.0625 C-10.2211234 0.64419045 -6.80196299 -0.83532879 0 0 Z M-11 7 C-13.53011146 10.49396345 -13.42830771 13.78830749 -13 18 C-11.63253089 21.25741463 -10.27108289 24.36445856 -7 26 C-1.20644114 26.52034052 -1.20644114 26.52034052 3.9375 24.1875 C7.31557241 20.60469592 7.39010446 17.0022591 7.359375 12.29296875 C6.74961638 8.40244364 4.81165184 6.67776365 2 4 C-3.27349123 1.36325438 -7.06957807 3.06957807 -11 7 Z " fill="#101010" transform="translate(236,230)"/>
<path d="M0 0 C2.36290557 2.13731198 3.62888368 3.99661415 4.82421875 6.94140625 C5.13037109 7.68970703 5.43652344 8.43800781 5.75195312 9.20898438 C6.06068359 9.98564453 6.36941406 10.76230469 6.6875 11.5625 C7.00783203 12.34302734 7.32816406 13.12355469 7.65820312 13.92773438 C10 19.71481876 10 19.71481876 10 22 C4.06 22 -1.88 22 -8 22 C-7.29836166 18.49180831 -6.7077252 15.97658183 -5.37109375 12.79296875 C-5.05849609 12.04208984 -4.74589844 11.29121094 -4.42382812 10.51757812 C-4.09833984 9.74865234 -3.77285156 8.97972656 -3.4375 8.1875 C-3.10814453 7.39923828 -2.77878906 6.61097656 -2.43945312 5.79882812 C-1.63041094 3.86416204 -0.81576148 1.93184247 0 0 Z " fill="#EFEFEF" transform="translate(271,275)"/>
<path d="M0 0 C0.99 0.33 1.98 0.66 3 1 C3 16.51 3 32.02 3 48 C1.68 48 0.36 48 -1 48 C-1.02526945 41.3247966 -1.04283268 34.64960543 -1.05493164 27.97436523 C-1.05997325 25.70157409 -1.06680637 23.4287862 -1.07543945 21.15600586 C-1.08751261 17.89696449 -1.09322987 14.63796583 -1.09765625 11.37890625 C-1.10281754 10.35599991 -1.10797882 9.33309357 -1.11329651 8.27919006 C-1.11337204 7.33829025 -1.11344757 6.39739044 -1.11352539 5.42797852 C-1.115746 4.59524918 -1.11796661 3.76251984 -1.12025452 2.90455627 C-1 1 -1 1 0 0 Z " fill="#080808" transform="translate(340,265)"/>
<path d="M0 0 C0.33 1.32 0.66 2.64 1 4 C-0.216875 4.04125 -1.43375 4.0825 -2.6875 4.125 C-6.14061841 4.53521087 -7.71487229 5.25073533 -9.9375 7.9375 C-12.43719989 11.64917559 -13.13136787 13.40100947 -13.31640625 17.7890625 C-13.35830078 18.73007812 -13.40019531 19.67109375 -13.44335938 20.640625 C-13.50233398 22.11789062 -13.50233398 22.11789062 -13.5625 23.625 C-13.60568359 24.61757813 -13.64886719 25.61015625 -13.69335938 26.6328125 C-13.79961069 29.08839838 -13.90164964 31.54408703 -14 34 C-15.32 34 -16.64 34 -18 34 C-18 23.44 -18 12.88 -18 2 C-16.68 2 -15.36 2 -14 2 C-13.67 3.32 -13.34 4.64 -13 6 C-12.05125 5.195625 -11.1025 4.39125 -10.125 3.5625 C-6.61404615 0.58582173 -4.65870626 -0.12259753 0 0 Z " fill="#060606" transform="translate(331,279)"/>
<path d="M0 0 C3.0625 2.3125 3.0625 2.3125 5 5 C5 6.32 5 7.64 5 9 C-2.26 9 -9.52 9 -17 9 C-15.85883361 4.43533445 -14.42365848 3.08964301 -11 0 C-7.48699331 -1.75650335 -3.71648794 -0.94193746 0 0 Z " fill="#F7F7F7" transform="translate(426,284)"/>
<path d="M0 0 C0.99 0 1.98 0 3 0 C3 2.64 3 5.28 3 8 C5.31 8 7.62 8 10 8 C10 8.99 10 9.98 10 11 C7.69 11 5.38 11 3 11 C3.33 17.93 3.66 24.86 4 32 C5.65 32.33 7.3 32.66 9 33 C8.67 33.99 8.34 34.98 8 36 C5.125 36.1875 5.125 36.1875 2 36 C-0.20192224 32.69711664 -0.23959968 31.72537273 -0.1953125 27.89453125 C-0.18564453 26.42016602 -0.18564453 26.42016602 -0.17578125 24.91601562 C-0.15902344 23.89185547 -0.14226562 22.86769531 -0.125 21.8125 C-0.11597656 20.77673828 -0.10695312 19.74097656 -0.09765625 18.67382812 C-0.0740786 16.11565315 -0.0411703 13.55794252 0 11 C-1.65 11 -3.3 11 -5 11 C-5 10.01 -5 9.02 -5 8 C-3.35 8 -1.7 8 0 8 C0 5.36 0 2.72 0 0 Z " fill="#080808" transform="translate(211,223)"/>
<path d="M0 0 C0.99 0.33 1.98 0.66 3 1 C3 12.88 3 24.76 3 37 C1.02 37.495 1.02 37.495 -1 38 C-1.02464928 32.74894558 -1.04283568 27.49792455 -1.05493164 22.24682617 C-1.05997218 20.45905979 -1.06680454 18.67129755 -1.07543945 16.88354492 C-1.0875173 14.31948832 -1.09323094 11.75548603 -1.09765625 9.19140625 C-1.10281754 8.3872377 -1.10797882 7.58306915 -1.11329651 6.75453186 C-1.11349215 4.83598285 -1.06201983 2.91754632 -1 1 C-0.67 0.67 -0.34 0.34 0 0 Z " fill="#060606" transform="translate(211,169)"/>
<path d="M0 0 C0.99 0.33 1.98 0.66 3 1 C3.33 1.99 3.66 2.98 4 4 C5.32 3.34 6.64 2.68 8 2 C7.35546875 3.0725 6.7109375 4.145 6.046875 5.25 C3.32198073 10.69978853 3.33255794 16.00329178 3.25 22 C3.22035156 23.06089844 3.19070313 24.12179687 3.16015625 25.21484375 C3.09001771 27.80996964 3.03704598 30.4042265 3 33 C1.68 33 0.36 33 -1 33 C-1.02465392 28.46102295 -1.04283789 23.92208457 -1.05493164 19.38305664 C-1.0599714 17.83780234 -1.0668032 16.29255284 -1.07543945 14.74731445 C-1.08752076 12.53074971 -1.09323173 10.31424782 -1.09765625 8.09765625 C-1.10281754 7.4028566 -1.10797882 6.70805695 -1.11329651 5.99220276 C-1.11349277 4.3277067 -1.06189129 2.66334501 -1 1 C-0.67 0.67 -0.34 0.34 0 0 Z " fill="#060606" transform="translate(369,280)"/>
<path d="M0 0 C0.99 0.33 1.98 0.66 3 1 C3 12.88 3 24.76 3 37 C1.68 37 0.36 37 -1 37 C-1.0246501 31.89136104 -1.04283607 26.78275641 -1.05493164 21.67407227 C-1.05997204 19.93480832 -1.0668043 18.19554864 -1.07543945 16.45629883 C-1.08751792 13.96174063 -1.09323108 11.46723827 -1.09765625 8.97265625 C-1.10281754 8.19036148 -1.10797882 7.40806671 -1.11329651 6.60206604 C-1.11349226 4.73432886 -1.06199694 2.86670796 -1 1 C-0.67 0.67 -0.34 0.34 0 0 Z " fill="#020202" transform="translate(169,169)"/>
<path d="M0 0 C1.32 0.33 2.64 0.66 4 1 C4 11.56 4 22.12 4 33 C2.02 33.495 2.02 33.495 0 34 C0 22.78 0 11.56 0 0 Z " fill="#1A1A1A" transform="translate(354,280)"/>
<path d="M0 0 C1.32 0.33 2.64 0.66 4 1 C4 11.56 4 22.12 4 33 C2.02 33.495 2.02 33.495 0 34 C0 22.78 0 11.56 0 0 Z " fill="#1A1A1A" transform="translate(299,280)"/>
<path d="M0 0 C0.33 0.99 0.66 1.98 1 3 C-1.9296875 3.48828125 -1.9296875 3.48828125 -4.859375 3.9765625 C-8.26742172 5.6059571 -9.30118909 7.66198559 -11 11 C-11.58482772 14.12679471 -11.69428672 17.19934287 -11.75 20.375 C-11.77964844 21.20644531 -11.80929688 22.03789062 -11.83984375 22.89453125 C-11.91000399 24.92917827 -11.95732895 26.96459091 -12 29 C-12.99 28.67 -13.98 28.34 -15 28 C-15 19.42 -15 10.84 -15 2 C-14.01 1.67 -13.02 1.34 -12 1 C-11.67 2.65 -11.34 4.3 -11 6 C-10.38125 5.195625 -9.7625 4.39125 -9.125 3.5625 C-6.10542067 -0.07875743 -4.56535327 -0.12014088 0 0 Z " fill="#0A0A0A" transform="translate(264,230)"/>
<path d="M0 0 C0.33 1.32 0.66 2.64 1 4 C-0.216875 4.0825 -1.43375 4.165 -2.6875 4.25 C-6.78465871 4.73758372 -9.00139908 6.09510536 -12 9 C-12 7.68 -12 6.36 -12 5 C-7.91834618 1.24058201 -5.49328776 -0.1445602 0 0 Z " fill="#191919" transform="translate(331,279)"/>
<path d="M0 0 C1.65 0.33 3.3 0.66 5 1 C4.67 2.65 4.34 4.3 4 6 C2.35 5.67 0.7 5.34 -1 5 C-0.67 3.35 -0.34 1.7 0 0 Z " fill="#1A1A1A" transform="translate(168,158)"/>
<path d="M0 0 C2.0625 0.4375 2.0625 0.4375 4 1 C4.5625 2.9375 4.5625 2.9375 5 5 C4 6 4 6 1.4375 6.0625 C0.2309375 6.0315625 0.2309375 6.0315625 -1 6 C-1.042721 4.33388095 -1.04063832 2.66617115 -1 1 C-0.67 0.67 -0.34 0.34 0 0 Z " fill="#181818" transform="translate(210,158)"/>
<path d="M0 0 C0.721875 0.103125 1.44375 0.20625 2.1875 0.3125 C2.5175 1.3025 2.8475 2.2925 3.1875 3.3125 C-4.4375 5.3125 -4.4375 5.3125 -7.8125 5.3125 C-3.50480769 0.38942308 -3.50480769 0.38942308 0 0 Z " fill="#1B1B1B" transform="translate(261.8125,229.6875)"/>
<path d="M0 0 C1.65 0 3.3 0 5 0 C4.67 1.65 4.34 3.3 4 5 C2.68 4.67 1.36 4.34 0 4 C0 2.68 0 1.36 0 0 Z " fill="#070707" transform="translate(353,270)"/>
<path d="M0 0 C1.65 0 3.3 0 5 0 C4.67 1.65 4.34 3.3 4 5 C2.68 4.67 1.36 4.34 0 4 C0 2.68 0 1.36 0 0 Z " fill="#070707" transform="translate(298,270)"/>
<path d="M0 0 C0.99 0.33 1.98 0.66 3 1 C1.37660195 2.70884005 -0.29319053 4.37446717 -2 6 C-2.66 6 -3.32 6 -4 6 C-3.6875 4.125 -3.6875 4.125 -3 2 C-2.01 1.34 -1.02 0.68 0 0 Z " fill="#191919" transform="translate(240,253)"/>
</svg>
